<svg xmlns="http://www.w3.org/2000/svg" xmlns:xlink="http://www.w3.org/1999/xlink" xmlns:lucid="lucid" width="2283" height="1795"><g transform="translate(1742 763)" lucid:page-tab-id="0_0"><path d="M-2000-1000h3000v2500h-3000z" fill="#fff"/><path d="M-1634.33 206a6 6 0 0 1 6-6h308a6 6 0 0 1 6 6v213a6 6 0 0 1-6 6h-308a6 6 0 0 1-6-6z" fill="#fff"/><path d="M-1634.33 206a6 6 0 0 1 6-6h308a6 6 0 0 1 6 6v213a6 6 0 0 1-6 6h-308a6 6 0 0 1-6-6zM-1634.33 240h320M-1449 240v185" stroke="#282c33" stroke-width="2" fill="none"/><use xlink:href="#a" transform="matrix(1,0,0,1,-1624.3333710351742,200) translate(114.35185185185185 24.444444444444443)"/><use xlink:href="#b" transform="matrix(1,0,0,1,-1629.3333710351742,242.5) translate(0 20.444444444444443)"/><use xlink:href="#c" transform="matrix(1,0,0,1,-1629.3333710351742,242.5) translate(28.333333333333332 20.444444444444443)"/><use xlink:href="#d" transform="matrix(1,0,0,1,-1444.000037701841,242.5) translate(0 20.444444444444443)"/><use xlink:href="#e" transform="matrix(1,0,0,1,-1629.3333710351742,279.5) translate(0 20.444444444444443)"/><use xlink:href="#f" transform="matrix(1,0,0,1,-1444.000037701841,279.5) translate(0 20.444444444444443)"/><use xlink:href="#g" transform="matrix(1,0,0,1,-1629.3333710351742,316.5) translate(0 20.444444444444443)"/><use xlink:href="#f" transform="matrix(1,0,0,1,-1444.000037701841,316.5) translate(0 20.444444444444443)"/><use xlink:href="#h" transform="matrix(1,0,0,1,-1629.3333710351742,353.5) translate(0 20.444444444444443)"/><use xlink:href="#i" transform="matrix(1,0,0,1,-1444.000037701841,353.5) translate(0 20.444444444444443)"/><use xlink:href="#j" transform="matrix(1,0,0,1,-1629.3333710351742,390.5) translate(0 20.444444444444443)"/><use xlink:href="#k" transform="matrix(1,0,0,1,-1629.3333710351742,390.5) translate(112.22222222222223 20.444444444444443)"/><use xlink:href="#d" transform="matrix(1,0,0,1,-1444.000037701841,390.5) translate(0 20.444444444444443)"/><path d="M-1634.33 566a6 6 0 0 1 6-6h338.66a6 6 0 0 1 6 6v176a6 6 0 0 1-6 6h-338.66a6 6 0 0 1-6-6z" fill="#fff"/><path d="M-1634.33 566a6 6 0 0 1 6-6h338.66a6 6 0 0 1 6 6v176a6 6 0 0 1-6 6h-338.66a6 6 0 0 1-6-6zM-1634.33 600h350.66M-1422.33 600v148" stroke="#282c33" stroke-width="2" fill="none"/><use xlink:href="#l" transform="matrix(1,0,0,1,-1624.333371035174,560) translate(102.6604938271605 24.444444444444443)"/><use xlink:href="#m" transform="matrix(1,0,0,1,-1624.333371035174,560) translate(169.14197530864197 24.444444444444443)"/><use xlink:href="#b" transform="matrix(1,0,0,1,-1629.333371035174,602.5) translate(64.67283950617283 20.444444444444443)"/><use xlink:href="#c" transform="matrix(1,0,0,1,-1629.333371035174,602.5) translate(93.00617283950616 20.444444444444443)"/><use xlink:href="#d" transform="matrix(1,0,0,1,-1417.333371035174,602.5) translate(0 20.444444444444443)"/><use xlink:href="#g" transform="matrix(1,0,0,1,-1629.333371035174,639.5) translate(69.51851851851852 20.444444444444443)"/><use xlink:href="#f" transform="matrix(1,0,0,1,-1417.333371035174,639.5) translate(0 20.444444444444443)"/><use xlink:href="#h" transform="matrix(1,0,0,1,-1629.333371035174,676.5) translate(16.493827160493822 20.444444444444443)"/><use xlink:href="#i" transform="matrix(1,0,0,1,-1417.333371035174,676.5) translate(0 20.444444444444443)"/><use xlink:href="#j" transform="matrix(1,0,0,1,-1629.333371035174,713.5) translate(23.376543209876544 20.444444444444443)"/><use xlink:href="#k" transform="matrix(1,0,0,1,-1629.333371035174,713.5) translate(135.5987654320988 20.444444444444443)"/><use xlink:href="#d" transform="matrix(1,0,0,1,-1417.333371035174,713.5) translate(0 20.444444444444443)"/><path d="M-820-736a6 6 0 0 1 6-6h338.67a6 6 0 0 1 6 6v250a6 6 0 0 1-6 6H-814a6 6 0 0 1-6-6z" fill="#fff"/><path d="M-820-736a6 6 0 0 1 6-6h338.67a6 6 0 0 1 6 6v250a6 6 0 0 1-6 6H-814a6 6 0 0 1-6-6zM-820-702h350.67M-608-702v222" stroke="#282c33" stroke-width="2" fill="none"/><use xlink:href="#n" transform="matrix(1,0,0,1,-810,-742) translate(121.08641975308643 24.444444444444443)"/><use xlink:href="#b" transform="matrix(1,0,0,1,-815,-699.5) translate(64.67283950617283 20.444444444444443)"/><use xlink:href="#c" transform="matrix(1,0,0,1,-815,-699.5) translate(93.00617283950616 20.444444444444443)"/><use xlink:href="#d" transform="matrix(1,0,0,1,-603,-699.5) translate(0 20.444444444444443)"/><use xlink:href="#e" transform="matrix(1,0,0,1,-815,-662.5) translate(76.95679012345678 20.444444444444443)"/><use xlink:href="#f" transform="matrix(1,0,0,1,-603,-662.5) translate(0 20.444444444444443)"/><use xlink:href="#o" transform="matrix(1,0,0,1,-815,-625.5) translate(31.18518518518519 20.444444444444443)"/><use xlink:href="#i" transform="matrix(1,0,0,1,-603,-625.5) translate(0 20.444444444444443)"/><use xlink:href="#p" transform="matrix(1,0,0,1,-815,-588.5) translate(30.5679012345679 20.444444444444443)"/><use xlink:href="#i" transform="matrix(1,0,0,1,-603,-588.5) translate(0 20.444444444444443)"/><use xlink:href="#g" transform="matrix(1,0,0,1,-815,-551.5) translate(69.51851851851852 20.444444444444443)"/><use xlink:href="#f" transform="matrix(1,0,0,1,-603,-551.5) translate(0 20.444444444444443)"/><use xlink:href="#j" transform="matrix(1,0,0,1,-815,-514.5) translate(23.376543209876544 20.444444444444443)"/><use xlink:href="#k" transform="matrix(1,0,0,1,-815,-514.5) translate(135.5987654320988 20.444444444444443)"/><use xlink:href="#d" transform="matrix(1,0,0,1,-603,-514.5) translate(0 20.444444444444443)"/><path d="M-1034.33 266a6 6 0 0 1 6-6h338.66a6 6 0 0 1 6 6v250a6 6 0 0 1-6 6h-338.66a6 6 0 0 1-6-6z" fill="#fff"/><path d="M-1034.33 266a6 6 0 0 1 6-6h338.66a6 6 0 0 1 6 6v250a6 6 0 0 1-6 6h-338.66a6 6 0 0 1-6-6zM-1034.33 300h350.66M-822.33 300v222" stroke="#282c33" stroke-width="2" fill="none"/><use xlink:href="#q" transform="matrix(1,0,0,1,-1024.3333710351742,260) translate(47.07407407407406 24.444444444444443)"/><use xlink:href="#r" transform="matrix(1,0,0,1,-1024.3333710351742,260) translate(180.28395061728395 24.444444444444443)"/><use xlink:href="#b" transform="matrix(1,0,0,1,-1029.3333710351742,302.5) translate(64.67283950617283 20.444444444444443)"/><use xlink:href="#c" transform="matrix(1,0,0,1,-1029.3333710351742,302.5) translate(93.00617283950616 20.444444444444443)"/><use xlink:href="#d" transform="matrix(1,0,0,1,-817.3333710351742,302.5) translate(0 20.444444444444443)"/><use xlink:href="#s" transform="matrix(1,0,0,1,-1029.3333710351742,339.5) translate(25.13580246913581 20.444444444444443)"/><use xlink:href="#i" transform="matrix(1,0,0,1,-817.3333710351742,339.5) translate(0 20.444444444444443)"/><use xlink:href="#t" transform="matrix(1,0,0,1,-1029.3333710351742,376.5) translate(23.962962962962962 20.444444444444443)"/><use xlink:href="#i" transform="matrix(1,0,0,1,-817.3333710351742,376.5) translate(0 20.444444444444443)"/><use xlink:href="#u" transform="matrix(1,0,0,1,-1029.3333710351742,413.5) translate(38.28395061728395 20.444444444444443)"/><use xlink:href="#k" transform="matrix(1,0,0,1,-1029.3333710351742,413.5) translate(120.69135802469135 20.444444444444443)"/><use xlink:href="#d" transform="matrix(1,0,0,1,-817.3333710351742,413.5) translate(0 20.444444444444443)"/><use xlink:href="#v" transform="matrix(1,0,0,1,-1029.3333710351742,450.5) translate(11.123456790123456 20.444444444444443)"/><use xlink:href="#k" transform="matrix(1,0,0,1,-1029.3333710351742,450.5) translate(147.85185185185185 20.444444444444443)"/><use xlink:href="#d" transform="matrix(1,0,0,1,-817.3333710351742,450.5) translate(0 20.444444444444443)"/><use xlink:href="#w" transform="matrix(1,0,0,1,-1029.3333710351742,487.5) translate(12.944444444444443 20.444444444444443)"/><use xlink:href="#k" transform="matrix(1,0,0,1,-1029.3333710351742,487.5) translate(146.0308641975309 20.444444444444443)"/><use xlink:href="#d" transform="matrix(1,0,0,1,-817.3333710351742,487.5) translate(0 20.444444444444443)"/><path d="M-1639-294a6 6 0 0 1 6-6h348a6 6 0 0 1 6 6v139a6 6 0 0 1-6 6h-348a6 6 0 0 1-6-6z" fill="#fff"/><path d="M-1639-294a6 6 0 0 1 6-6h348a6 6 0 0 1 6 6v139a6 6 0 0 1-6 6h-348a6 6 0 0 1-6-6zM-1639-260h360M-1427-260v111" stroke="#282c33" stroke-width="2" fill="none"/><use xlink:href="#x" transform="matrix(1,0,0,1,-1629.000037701841,-300) translate(117.50617283950618 24.444444444444443)"/><use xlink:href="#y" transform="matrix(1,0,0,1,-1629.000037701841,-300) translate(161.82716049382717 24.444444444444443)"/><use xlink:href="#b" transform="matrix(1,0,0,1,-1634.000037701841,-257.5) translate(64.67283950617283 20.444444444444443)"/><use xlink:href="#c" transform="matrix(1,0,0,1,-1634.000037701841,-257.5) translate(93.00617283950616 20.444444444444443)"/><use xlink:href="#d" transform="matrix(1,0,0,1,-1422.000037701841,-257.5) translate(0 20.444444444444443)"/><use xlink:href="#z" transform="matrix(1,0,0,1,-1634.000037701841,-220.5) translate(71.4320987654321 20.444444444444443)"/><use xlink:href="#f" transform="matrix(1,0,0,1,-1422.000037701841,-220.5) translate(0 20.444444444444443)"/><use xlink:href="#A" transform="matrix(1,0,0,1,-1634.000037701841,-183.5) translate(45.5679012345679 20.444444444444443)"/><use xlink:href="#f" transform="matrix(1,0,0,1,-1422.000037701841,-183.5) translate(0 20.444444444444443)"/><path d="M-1000-114a6 6 0 0 1 6-6h338.67a6 6 0 0 1 6 6V99a6 6 0 0 1-6 6H-994a6 6 0 0 1-6-6z" fill="#fff"/><path d="M-1000-114a6 6 0 0 1 6-6h338.67a6 6 0 0 1 6 6V99a6 6 0 0 1-6 6H-994a6 6 0 0 1-6-6zM-1000-80h350.67M-788-80v185" stroke="#282c33" stroke-width="2" fill="none"/><use xlink:href="#B" transform="matrix(1,0,0,1,-990,-120) translate(126.08641975308643 24.444444444444443)"/><use xlink:href="#b" transform="matrix(1,0,0,1,-995,-77.5) translate(64.67283950617283 20.444444444444443)"/><use xlink:href="#c" transform="matrix(1,0,0,1,-995,-77.5) translate(93.00617283950616 20.444444444444443)"/><use xlink:href="#d" transform="matrix(1,0,0,1,-783,-77.5) translate(0 20.444444444444443)"/><use xlink:href="#z" transform="matrix(1,0,0,1,-995,-40.5) translate(71.4320987654321 20.444444444444443)"/><use xlink:href="#f" transform="matrix(1,0,0,1,-783,-40.5) translate(0 20.444444444444443)"/><use xlink:href="#C" transform="matrix(1,0,0,1,-995,-3.5) translate(29.48765432098766 20.444444444444443)"/><use xlink:href="#f" transform="matrix(1,0,0,1,-783,-3.5) translate(0 20.444444444444443)"/><use xlink:href="#D" transform="matrix(1,0,0,1,-995,33.5) translate(73.31481481481481 20.444444444444443)"/><use xlink:href="#E" transform="matrix(1,0,0,1,-783,33.5) translate(0 20.444444444444443)"/><use xlink:href="#j" transform="matrix(1,0,0,1,-995,70.5) translate(22.728395061728392 20.444444444444443)"/><use xlink:href="#c" transform="matrix(1,0,0,1,-995,70.5) translate(134.95061728395063 20.444444444444443)"/><use xlink:href="#d" transform="matrix(1,0,0,1,-783,70.5) translate(0 20.444444444444443)"/><path d="M-540-428a6 6 0 0 1 6-6h338.67a6 6 0 0 1 6 6v287a6 6 0 0 1-6 6H-534a6 6 0 0 1-6-6z" fill="#fff"/><path d="M-540-428a6 6 0 0 1 6-6h338.67a6 6 0 0 1 6 6v287a6 6 0 0 1-6 6H-534a6 6 0 0 1-6-6zM-540-394h350.67M-328-394v259" stroke="#282c33" stroke-width="2" fill="none"/><use xlink:href="#F" transform="matrix(1,0,0,1,-530,-434) translate(126.67283950617283 24.444444444444443)"/><use xlink:href="#b" transform="matrix(1,0,0,1,-535,-391.5) translate(64.67283950617283 20.444444444444443)"/><use xlink:href="#c" transform="matrix(1,0,0,1,-535,-391.5) translate(93.00617283950616 20.444444444444443)"/><use xlink:href="#d" transform="matrix(1,0,0,1,-323,-391.5) translate(0 20.444444444444443)"/><use xlink:href="#e" transform="matrix(1,0,0,1,-535,-354.5) translate(76.95679012345678 20.444444444444443)"/><use xlink:href="#f" transform="matrix(1,0,0,1,-323,-354.5) translate(0 20.444444444444443)"/><use xlink:href="#A" transform="matrix(1,0,0,1,-535,-317.5) translate(45.5679012345679 20.444444444444443)"/><use xlink:href="#f" transform="matrix(1,0,0,1,-323,-317.5) translate(0 20.444444444444443)"/><use xlink:href="#j" transform="matrix(1,0,0,1,-535,-280.5) translate(23.376543209876544 20.444444444444443)"/><use xlink:href="#k" transform="matrix(1,0,0,1,-535,-280.5) translate(135.5987654320988 20.444444444444443)"/><use xlink:href="#d" transform="matrix(1,0,0,1,-323,-280.5) translate(0 20.444444444444443)"/><use xlink:href="#G" transform="matrix(1,0,0,1,-535,-243.5) translate(31.956790123456784 20.444444444444443)"/><use xlink:href="#i" transform="matrix(1,0,0,1,-323,-243.5) translate(0 20.444444444444443)"/><use xlink:href="#g" transform="matrix(1,0,0,1,-535,-206.5) translate(69.51851851851852 20.444444444444443)"/><use xlink:href="#f" transform="matrix(1,0,0,1,-323,-206.5) translate(0 20.444444444444443)"/><use xlink:href="#H" transform="matrix(1,0,0,1,-535,-169.5) translate(31.462962962962976 20.444444444444443)"/><use xlink:href="#k" transform="matrix(1,0,0,1,-535,-169.5) translate(127.51234567901234 20.444444444444443)"/><use xlink:href="#d" transform="matrix(1,0,0,1,-323,-169.5) translate(0 20.444444444444443)"/><path d="M40-54a6 6 0 0 1 6-6h468a6 6 0 0 1 6 6v361a6 6 0 0 1-6 6H46a6 6 0 0 1-6-6z" fill="#fff"/><path d="M40-54a6 6 0 0 1 6-6h468a6 6 0 0 1 6 6v361a6 6 0 0 1-6 6H46a6 6 0 0 1-6-6zM40-20h480M372-20v333" stroke="#282c33" stroke-width="2" fill="none"/><use xlink:href="#I" transform="matrix(1,0,0,1,50,-60) translate(167.37654320987656 24.444444444444443)"/><use xlink:href="#J" transform="matrix(1,0,0,1,50,-60) translate(224.8456790123457 24.444444444444443)"/><use xlink:href="#b" transform="matrix(1,0,0,1,45,-17.5) translate(124.67283950617283 20.444444444444443)"/><use xlink:href="#c" transform="matrix(1,0,0,1,45,-17.5) translate(153.00617283950618 20.444444444444443)"/><use xlink:href="#d" transform="matrix(1,0,0,1,377,-17.5) translate(0 20.444444444444443)"/><use xlink:href="#K" transform="matrix(1,0,0,1,45,19.5) translate(81.5246913580247 20.444444444444443)"/><use xlink:href="#i" transform="matrix(1,0,0,1,377,19.5) translate(0 20.444444444444443)"/><use xlink:href="#A" transform="matrix(1,0,0,1,45,56.5) translate(105.5679012345679 20.444444444444443)"/><use xlink:href="#f" transform="matrix(1,0,0,1,377,56.5) translate(0 20.444444444444443)"/><use xlink:href="#g" transform="matrix(1,0,0,1,45,93.5) translate(129.51851851851853 20.444444444444443)"/><use xlink:href="#f" transform="matrix(1,0,0,1,377,93.5) translate(0 20.444444444444443)"/><use xlink:href="#L" transform="matrix(1,0,0,1,45,130.5) translate(86.46296296296298 20.444444444444443)"/><use xlink:href="#k" transform="matrix(1,0,0,1,45,130.5) translate(192.51234567901236 20.444444444444443)"/><use xlink:href="#d" transform="matrix(1,0,0,1,377,130.5) translate(0 20.444444444444443)"/><use xlink:href="#M" transform="matrix(1,0,0,1,45,167.5) translate(92.0493827160494 20.444444444444443)"/><use xlink:href="#k" transform="matrix(1,0,0,1,45,167.5) translate(186.92592592592592 20.444444444444443)"/><use xlink:href="#d" transform="matrix(1,0,0,1,377,167.5) translate(0 20.444444444444443)"/><use xlink:href="#u" transform="matrix(1,0,0,1,45,204.5) translate(98.28395061728395 20.444444444444443)"/><use xlink:href="#k" transform="matrix(1,0,0,1,45,204.5) translate(180.69135802469134 20.444444444444443)"/><use xlink:href="#d" transform="matrix(1,0,0,1,377,204.5) translate(0 20.444444444444443)"/><use xlink:href="#v" transform="matrix(1,0,0,1,45,241.5) translate(71.12345679012346 20.444444444444443)"/><use xlink:href="#k" transform="matrix(1,0,0,1,45,241.5) translate(207.85185185185185 20.444444444444443)"/><use xlink:href="#d" transform="matrix(1,0,0,1,377,241.5) translate(0 20.444444444444443)"/><use xlink:href="#N" transform="matrix(1,0,0,1,45,278.5) translate(27.296296296296333 20.444444444444443)"/><use xlink:href="#k" transform="matrix(1,0,0,1,45,278.5) translate(251.67901234567898 20.444444444444443)"/><use xlink:href="#d" transform="matrix(1,0,0,1,377,278.5) translate(0 20.444444444444443)"/><path d="M-1034.33 646a6 6 0 0 1 6-6h338.66a6 6 0 0 1 6 6v176a6 6 0 0 1-6 6h-338.66a6 6 0 0 1-6-6z" fill="#fff"/><path d="M-1034.33 646a6 6 0 0 1 6-6h338.66a6 6 0 0 1 6 6v176a6 6 0 0 1-6 6h-338.66a6 6 0 0 1-6-6zM-1034.33 680h350.66M-822.33 680v148" stroke="#282c33" stroke-width="2" fill="none"/><use xlink:href="#O" transform="matrix(1,0,0,1,-1024.3333710351742,640) translate(107.5679012345679 24.444444444444443)"/><use xlink:href="#b" transform="matrix(1,0,0,1,-1029.3333710351742,682.5) translate(64.67283950617283 20.444444444444443)"/><use xlink:href="#c" transform="matrix(1,0,0,1,-1029.3333710351742,682.5) translate(93.00617283950616 20.444444444444443)"/><use xlink:href="#d" transform="matrix(1,0,0,1,-817.3333710351742,682.5) translate(0 20.444444444444443)"/><use xlink:href="#z" transform="matrix(1,0,0,1,-1029.3333710351742,719.5) translate(71.4320987654321 20.444444444444443)"/><use xlink:href="#f" transform="matrix(1,0,0,1,-817.3333710351742,719.5) translate(0 20.444444444444443)"/><use xlink:href="#P" transform="matrix(1,0,0,1,-1029.3333710351742,756.5) translate(56 20.444444444444443)"/><use xlink:href="#f" transform="matrix(1,0,0,1,-817.3333710351742,756.5) translate(0 20.444444444444443)"/><use xlink:href="#Q" transform="matrix(1,0,0,1,-1029.3333710351742,793.5) translate(7.3888888888889 20.444444444444443)"/><use xlink:href="#k" transform="matrix(1,0,0,1,-1029.3333710351742,793.5) translate(151.58641975308643 20.444444444444443)"/><use xlink:href="#d" transform="matrix(1,0,0,1,-817.3333710351742,793.5) translate(0 20.444444444444443)"/><path d="M-1634.33 866a6 6 0 0 1 6-6h338.66a6 6 0 0 1 6 6v139a6 6 0 0 1-6 6h-338.66a6 6 0 0 1-6-6z" fill="#fff"/><path d="M-1634.33 866a6 6 0 0 1 6-6h338.66a6 6 0 0 1 6 6v139a6 6 0 0 1-6 6h-338.66a6 6 0 0 1-6-6zM-1634.33 900h350.66M-1422.33 900v111" stroke="#282c33" stroke-width="2" fill="none"/><use xlink:href="#R" transform="matrix(1,0,0,1,-1624.3333710351742,860) translate(102.01234567901236 24.444444444444443)"/><use xlink:href="#b" transform="matrix(1,0,0,1,-1629.3333710351742,902.5) translate(64.67283950617283 20.444444444444443)"/><use xlink:href="#c" transform="matrix(1,0,0,1,-1629.3333710351742,902.5) translate(93.00617283950616 20.444444444444443)"/><use xlink:href="#d" transform="matrix(1,0,0,1,-1417.3333710351742,902.5) translate(0 20.444444444444443)"/><use xlink:href="#z" transform="matrix(1,0,0,1,-1629.3333710351742,939.5) translate(71.4320987654321 20.444444444444443)"/><use xlink:href="#f" transform="matrix(1,0,0,1,-1417.3333710351742,939.5) translate(0 20.444444444444443)"/><use xlink:href="#A" transform="matrix(1,0,0,1,-1629.3333710351742,976.5) translate(45.5679012345679 20.444444444444443)"/><use xlink:href="#f" transform="matrix(1,0,0,1,-1417.3333710351742,976.5) translate(0 20.444444444444443)"/><path d="M-1634.33-654a6 6 0 0 1 6-6h338.66a6 6 0 0 1 6 6v250a6 6 0 0 1-6 6h-338.66a6 6 0 0 1-6-6z" fill="#fff"/><path d="M-1634.33-654a6 6 0 0 1 6-6h338.66a6 6 0 0 1 6 6v250a6 6 0 0 1-6 6h-338.66a6 6 0 0 1-6-6zM-1634.33-620h350.66M-1422.33-620v222" stroke="#282c33" stroke-width="2" fill="none"/><use xlink:href="#S" transform="matrix(1,0,0,1,-1624.3333710351742,-660) translate(118 24.444444444444443)"/><use xlink:href="#b" transform="matrix(1,0,0,1,-1629.3333710351742,-617.5) translate(64.67283950617283 20.444444444444443)"/><use xlink:href="#c" transform="matrix(1,0,0,1,-1629.3333710351742,-617.5) translate(93.00617283950616 20.444444444444443)"/><use xlink:href="#d" transform="matrix(1,0,0,1,-1417.3333710351742,-617.5) translate(0 20.444444444444443)"/><use xlink:href="#T" transform="matrix(1,0,0,1,-1629.3333710351742,-580.5) translate(60.29012345679013 20.444444444444443)"/><use xlink:href="#f" transform="matrix(1,0,0,1,-1417.3333710351742,-580.5) translate(0 20.444444444444443)"/><use xlink:href="#U" transform="matrix(1,0,0,1,-1629.3333710351742,-543.5) translate(81.92592592592592 20.444444444444443)"/><use xlink:href="#f" transform="matrix(1,0,0,1,-1417.3333710351742,-543.5) translate(0 20.444444444444443)"/><use xlink:href="#V" transform="matrix(1,0,0,1,-1629.3333710351742,-506.5) translate(75.07407407407408 20.444444444444443)"/><use xlink:href="#E" transform="matrix(1,0,0,1,-1417.3333710351742,-506.5) translate(0 20.444444444444443)"/><use xlink:href="#W" transform="matrix(1,0,0,1,-1629.3333710351742,-469.5) translate(59.117283950617285 20.444444444444443)"/><use xlink:href="#X" transform="matrix(1,0,0,1,-1417.3333710351742,-469.5) translate(0 20.444444444444443)"/><use xlink:href="#Y" transform="matrix(1,0,0,1,-1629.3333710351742,-432.5) translate(40.043209876543216 20.444444444444443)"/><use xlink:href="#k" transform="matrix(1,0,0,1,-1629.3333710351742,-432.5) translate(118.9320987654321 20.444444444444443)"/><use xlink:href="#d" transform="matrix(1,0,0,1,-1417.3333710351742,-432.5) translate(0 20.444444444444443)"/><path d="M-1660-241.6h-14a6 6 0 0 1-6-6v-162.26a6 6 0 0 1 6-6h18.67" stroke="#3a414a" fill="none"/><path d="M-1660-251.6v20M-1640-241.6h-20" stroke="#3a414a" fill="#fff"/><path d="M-1635.56-405.86l-20-10 20-10" stroke="#3a414a" fill="#fff" fill-opacity="0"/><path d="M-1635.56-415.86h-20M-1655.56-425.86v20" stroke="#3a414a" fill="#fff"/><path d="M-1262.67-601.9H-1048a6 6 0 0 1 6 6v91.4a6 6 0 0 0 6 6h175.5" stroke="#3a414a" fill="none"/><path d="M-1262.67-591.9v-20M-1282.67-601.9h20" stroke="#3a414a" fill="#fff"/><path d="M-821.22-488.5l-20-10 20-10" stroke="#3a414a" fill="#fff" fill-opacity="0"/><path d="M-821.22-498.5h-20M-841.22-498.5c0 5.52-4.48 10-10 10-5.53 0-10-4.48-10-10s4.47-10 10-10c5.52 0 10 4.48 10 10" stroke="#3a414a" fill="#fff"/><path d="M-1262.67-601.9h114.84a6 6 0 0 1 6 6V81.03a6 6 0 0 0 6 6h115.42" stroke="#3a414a" fill="none"/><path d="M-1262.67-591.9v-20M-1282.67-601.9h20" stroke="#3a414a" fill="#fff"/><path d="M-1001.22 97.04l-20-10 20-10" stroke="#3a414a" fill="#fff" fill-opacity="0"/><path d="M-1001.22 87.04h-20" stroke="#3a414a" fill="#fff"/><path d="M-1262.67-601.9h344.84a6 6 0 0 1 6 6v325.4a6 6 0 0 0 6 6h325.33" stroke="#3a414a" fill="none"/><path d="M-1262.67-591.9v-20M-1282.67-601.9h20" stroke="#3a414a" fill="#fff"/><path d="M-541.22-254.5l-20-10 20-10" stroke="#3a414a" fill="#fff" fill-opacity="0"/><path d="M-541.22-264.5h-20M-561.22-264.5c0 5.52-4.48 10-10 10-5.53 0-10-4.48-10-10s4.47-10 10-10c5.52 0 10 4.48 10 10" stroke="#3a414a" fill="#fff"/><path d="M-628.33-61.8h27.66a6 6 0 0 0 6-6v-79.7a6 6 0 0 1 6-6h8.17" stroke="#3a414a" fill="none"/><path d="M-628.33-51.8v-20M-648.33-61.8h20" stroke="#3a414a" fill="#fff"/><path d="M-541.22-143.5l-20-10 20-10" stroke="#3a414a" fill="#fff" fill-opacity="0"/><path d="M-541.22-153.5h-20M-561.22-153.5c0 5.52-4.48 10-10 10-5.53 0-10-4.48-10-10s4.47-10 10-10c5.52 0 10 4.48 10 10" stroke="#3a414a" fill="#fff"/><path d="M-1262.67 918.4h97.67a6 6 0 0 0 6-6v-96.47a6 6 0 0 1 6-6h97.67" stroke="#3a414a" fill="none"/><path d="M-1262.67 928.4v-20M-1282.67 918.4h20" stroke="#3a414a" fill="#fff"/><path d="M-1035.56 819.93l-20-10 20-10" stroke="#3a414a" fill="#fff" fill-opacity="0"/><path d="M-1035.56 809.93h-20M-1055.56 799.93v20" stroke="#3a414a" fill="#fff"/><path d="M-1262.67 618.5h97.67a6 6 0 0 0 6-6V472.93a6 6 0 0 1 6-6h78.17" stroke="#3a414a" fill="none"/><path d="M-1262.67 628.5v-20M-1282.67 618.5h20M-1045.33 456.93v20M-1035.33 466.93h-20M-1055.33 466.93c0 5.52-4.48 10-10 10-5.53 0-10-4.48-10-10s4.47-10 10-10c5.52 0 10 4.48 10 10" stroke="#3a414a" fill="#fff"/><path d="M-1074.83 429.72h-93.5a6 6 0 0 1-6-6V264.5a6 6 0 0 0-6-6h-113" stroke="#3a414a" fill="none"/><path d="M-1045.33 419.72v20M-1035.33 429.72h-20M-1055.33 429.72c0 5.52-4.48 10-10 10-5.53 0-10-4.48-10-10s4.47-10 10-10c5.52 0 10 4.48 10 10M-1293.33 268.5v-20M-1313.33 258.5h20" stroke="#3a414a" fill="#fff"/><path d="M-662.67 504.14h14a6 6 0 0 1 6 6V692.3a6 6 0 0 1-6 6h-14" stroke="#3a414a" fill="none"/><path d="M-662.67 514.14v-20M-682.67 504.14h20" stroke="#3a414a" fill="#fff"/><path d="M-682.44 688.3l20 10-20 10" stroke="#3a414a" fill="#fff" fill-opacity="0"/><path d="M-682.44 698.3h20M-662.44 708.3v-20" stroke="#3a414a" fill="#fff"/><path d="M19 146.58h-123a6 6 0 0 1-6-6v-818.5a6 6 0 0 0-6-6h-332.33" stroke="#3a414a" fill="none"/><path d="M19 136.58v20M39 146.58H19M-448.33-673.9v-20M-468.33-683.9h20" stroke="#3a414a" fill="#fff"/><path d="M19 183.74h-87.67a6 6 0 0 1-6-6v-547.76a6 6 0 0 0-6-6h-88.25" stroke="#3a414a" fill="none"/><path d="M19 173.74v20M39 183.74H19" stroke="#3a414a" fill="#fff"/><path d="M-188.1-386.02l20 10-20 10" stroke="#3a414a" fill="#fff" fill-opacity="0"/><path d="M-188.1-376.02h20" stroke="#3a414a" fill="#fff"/><path d="M19 295.2h-33a6 6 0 0 0-6 6v391.1a6 6 0 0 1-6 6h-636.67" stroke="#3a414a" fill="none"/><path d="M19 285.2v20M39 295.2H19" stroke="#3a414a" fill="#fff"/><path d="M-682.44 688.3l20 10-20 10" stroke="#3a414a" fill="#fff" fill-opacity="0"/><path d="M-682.44 698.3h20M-662.44 708.3v-20" stroke="#3a414a" fill="#fff"/><path d="M-.5 220.9h-1293.42" stroke="#3a414a" fill="none"/><path d="M29 210.9v20M39 220.9H19M19 220.9c0 5.5-4.48 10-10 10s-10-4.5-10-10c0-5.53 4.48-10 10-10s10 4.47 10 10" stroke="#3a414a" fill="#fff"/><path d="M-1313.1 210.9l20 10-20 10" stroke="#3a414a" fill="#fff" fill-opacity="0"/><path d="M-1313.1 220.9h20" stroke="#3a414a" fill="#fff"/><path d="M-.5 258.05h-615.33a6 6 0 0 0-6 6v309.53a6 6 0 0 1-6 6h-635.43" stroke="#3a414a" fill="none"/><path d="M29 248.05v20M39 258.05H19M19 258.05c0 5.52-4.48 10-10 10s-10-4.48-10-10c0-5.53 4.48-10 10-10s10 4.47 10 10" stroke="#3a414a" fill="#fff"/><path d="M-1282.44 569.58l20 10-20 10" stroke="#3a414a" fill="#fff" fill-opacity="0"/><path d="M-1282.44 579.58h20" stroke="#3a414a" fill="#fff"/><path d="M-1655.33-601.9H-1734a6 6 0 0 0-6 6v997a6 6 0 0 0 6 6h79.26" stroke="#3a414a" fill="none"/><path d="M-1655.33-611.9v20M-1635.33-601.9h-20" stroke="#3a414a" fill="#fff"/><path d="M-1635.56 417.1l-20-10 20-10" stroke="#3a414a" fill="#fff" fill-opacity="0"/><path d="M-1635.56 407.1h-20" stroke="#3a414a" fill="#fff"/><path d="M-1655.33-601.9H-1734a6 6 0 0 0-6 6V723.92a6 6 0 0 0 6 6h79.26" stroke="#3a414a" fill="none"/><path d="M-1655.33-611.9v20M-1635.33-601.9h-20" stroke="#3a414a" fill="#fff"/><path d="M-1635.56 739.93l-20-10 20-10" stroke="#3a414a" fill="#fff" fill-opacity="0"/><path d="M-1635.56 729.93h-20" stroke="#3a414a" fill="#fff"/><defs><path fill="#3a414a" d="M232-93c-1 65-40 97-104 97C67 4 28-28 28-90v-158h33c8 89-33 224 67 224 102 0 64-133 71-224h33v155" id="Z"/><path fill="#3a414a" d="M59-47c-2 24 18 29 38 22v24C64 9 27 4 27-40v-127H5v-23h24l9-43h21v43h35v23H59v120" id="aa"/><path fill="#3a414a" d="M24-231v-30h32v30H24zM24 0v-190h32V0H24" id="ab"/><path fill="#3a414a" d="M24 0v-261h32V0H24" id="ac"/><path fill="#3a414a" d="M100-194c63 0 86 42 84 106H49c0 40 14 67 53 68 26 1 43-12 49-29l28 8c-11 28-37 45-77 45C44 4 14-33 15-96c1-61 26-98 85-98zm52 81c6-60-76-77-97-28-3 7-6 17-6 28h103" id="ad"/><path fill="#3a414a" d="M135-143c-3-34-86-38-87 0 15 53 115 12 119 90S17 21 10-45l28-5c4 36 97 45 98 0-10-56-113-15-118-90-4-57 82-63 122-42 12 7 21 19 24 35" id="ae"/><g id="a"><use transform="matrix(0.06172839506172839,0,0,0.06172839506172839,0,0)" xlink:href="#Z"/><use transform="matrix(0.06172839506172839,0,0,0.06172839506172839,15.987654320987653,0)" xlink:href="#aa"/><use transform="matrix(0.06172839506172839,0,0,0.06172839506172839,22.160493827160494,0)" xlink:href="#ab"/><use transform="matrix(0.06172839506172839,0,0,0.06172839506172839,27.037037037037038,0)" xlink:href="#ac"/><use transform="matrix(0.06172839506172839,0,0,0.06172839506172839,31.913580246913586,0)" xlink:href="#ab"/><use transform="matrix(0.06172839506172839,0,0,0.06172839506172839,36.79012345679013,0)" xlink:href="#aa"/><use transform="matrix(0.06172839506172839,0,0,0.06172839506172839,42.96296296296297,0)" xlink:href="#ab"/><use transform="matrix(0.06172839506172839,0,0,0.06172839506172839,47.83950617283951,0)" xlink:href="#ad"/><use transform="matrix(0.06172839506172839,0,0,0.06172839506172839,60.18518518518519,0)" xlink:href="#ae"/></g><path fill="#3a414a" d="M33 0v-248h34V0H33" id="af"/><path fill="#3a414a" d="M30-248c118-7 216 8 213 122C240-48 200 0 122 0H30v-248zM63-27c89 8 146-16 146-99s-60-101-146-95v194" id="ag"/><g id="b"><use transform="matrix(0.06172839506172839,0,0,0.06172839506172839,0,0)" xlink:href="#af"/><use transform="matrix(0.06172839506172839,0,0,0.06172839506172839,6.172839506172839,0)" xlink:href="#ag"/></g><path fill="#3a414a" d="M87 75C49 33 22-17 22-94c0-76 28-126 65-167h31c-38 41-64 92-64 168S80 34 118 75H87" id="ah"/><path fill="#3a414a" d="M30-248c87 1 191-15 191 75 0 78-77 80-158 76V0H30v-248zm33 125c57 0 124 11 124-50 0-59-68-47-124-48v98" id="ai"/><path fill="#3a414a" d="M194 0L95-120 63-95V0H30v-248h33v124l119-124h40L117-140 236 0h-42" id="aj"/><path fill="#3a414a" d="M33-261c38 41 65 92 65 168S71 34 33 75H2C39 34 66-17 66-93S39-220 2-261h31" id="ak"/><g id="c"><use transform="matrix(0.06172839506172839,0,0,0.06172839506172839,0,0)" xlink:href="#ah"/><use transform="matrix(0.06172839506172839,0,0,0.06172839506172839,7.345679012345679,0)" xlink:href="#ai"/><use transform="matrix(0.06172839506172839,0,0,0.06172839506172839,22.160493827160494,0)" xlink:href="#aj"/><use transform="matrix(0.06172839506172839,0,0,0.06172839506172839,36.9753086419753,0)" xlink:href="#ak"/></g><path fill="#3a414a" d="M117-194c89-4 53 116 60 194h-32v-121c0-31-8-49-39-48C34-167 62-67 57 0H25l-1-190h30c1 10-1 24 2 32 11-22 29-35 61-36" id="al"/><g id="d"><use transform="matrix(0.06172839506172839,0,0,0.06172839506172839,0,0)" xlink:href="#af"/><use transform="matrix(0.06172839506172839,0,0,0.06172839506172839,6.172839506172839,0)" xlink:href="#al"/><use transform="matrix(0.06172839506172839,0,0,0.06172839506172839,18.51851851851852,0)" xlink:href="#aa"/></g><path fill="#3a414a" d="M127-220V0H93v-220H8v-28h204v28h-85" id="am"/><path fill="#3a414a" d="M179-190L93 31C79 59 56 82 12 73V49c39 6 53-20 64-50L1-190h34L92-34l54-156h33" id="an"/><path fill="#3a414a" d="M115-194c55 1 70 41 70 98S169 2 115 4C84 4 66-9 55-30l1 105H24l-1-265h31l2 30c10-21 28-34 59-34zm-8 174c40 0 45-34 45-75s-6-73-45-74c-42 0-51 32-51 76 0 43 10 73 51 73" id="ao"/><g id="e"><use transform="matrix(0.06172839506172839,0,0,0.06172839506172839,0,0)" xlink:href="#am"/><use transform="matrix(0.06172839506172839,0,0,0.06172839506172839,12.28395061728395,0)" xlink:href="#an"/><use transform="matrix(0.06172839506172839,0,0,0.06172839506172839,23.39506172839506,0)" xlink:href="#ao"/><use transform="matrix(0.06172839506172839,0,0,0.06172839506172839,35.74074074074074,0)" xlink:href="#ad"/></g><path fill="#3a414a" d="M137 0h-34L2-248h35l83 218 83-218h36" id="ap"/><path fill="#3a414a" d="M141-36C126-15 110 5 73 4 37 3 15-17 15-53c-1-64 63-63 125-63 3-35-9-54-41-54-24 1-41 7-42 31l-33-3c5-37 33-52 76-52 45 0 72 20 72 64v82c-1 20 7 32 28 27v20c-31 9-61-2-59-35zM48-53c0 20 12 33 32 33 41-3 63-29 60-74-43 2-92-5-92 41" id="aq"/><path fill="#3a414a" d="M114-163C36-179 61-72 57 0H25l-1-190h30c1 12-1 29 2 39 6-27 23-49 58-41v29" id="ar"/><path fill="#3a414a" d="M96-169c-40 0-48 33-48 73s9 75 48 75c24 0 41-14 43-38l32 2c-6 37-31 61-74 61-59 0-76-41-82-99-10-93 101-131 147-64 4 7 5 14 7 22l-32 3c-4-21-16-35-41-35" id="as"/><path fill="#3a414a" d="M106-169C34-169 62-67 57 0H25v-261h32l-1 103c12-21 28-36 61-36 89 0 53 116 60 194h-32v-121c2-32-8-49-39-48" id="at"/><path fill="#3a414a" d="M101-251c82-7 93 87 43 132L82-64C71-53 59-42 53-27h129V0H18c2-99 128-94 128-182 0-28-16-43-45-43s-46 15-49 41l-32-3c6-41 34-60 81-64" id="au"/><path fill="#3a414a" d="M54-142c48-35 137-8 131 61C196 18 31 33 14-55l32-4c7 23 22 37 52 37 35-1 51-22 54-58 4-55-73-65-99-34H22l8-134h141v27H59" id="av"/><g id="f"><use transform="matrix(0.06172839506172839,0,0,0.06172839506172839,0,0)" xlink:href="#ap"/><use transform="matrix(0.06172839506172839,0,0,0.06172839506172839,13.148148148148147,0)" xlink:href="#aq"/><use transform="matrix(0.06172839506172839,0,0,0.06172839506172839,25.493827160493826,0)" xlink:href="#ar"/><use transform="matrix(0.06172839506172839,0,0,0.06172839506172839,32.839506172839506,0)" xlink:href="#as"/><use transform="matrix(0.06172839506172839,0,0,0.06172839506172839,43.95061728395062,0)" xlink:href="#at"/><use transform="matrix(0.06172839506172839,0,0,0.06172839506172839,56.2962962962963,0)" xlink:href="#aq"/><use transform="matrix(0.06172839506172839,0,0,0.06172839506172839,68.64197530864197,0)" xlink:href="#ar"/><use transform="matrix(0.06172839506172839,0,0,0.06172839506172839,75.98765432098766,0)" xlink:href="#ah"/><use transform="matrix(0.06172839506172839,0,0,0.06172839506172839,83.33333333333334,0)" xlink:href="#au"/><use transform="matrix(0.06172839506172839,0,0,0.06172839506172839,95.67901234567903,0)" xlink:href="#av"/><use transform="matrix(0.06172839506172839,0,0,0.06172839506172839,108.02469135802471,0)" xlink:href="#av"/><use transform="matrix(0.06172839506172839,0,0,0.06172839506172839,120.3703703703704,0)" xlink:href="#ak"/></g><path fill="#3a414a" d="M185-189c-5-48-123-54-124 2 14 75 158 14 163 119 3 78-121 87-175 55-17-10-28-26-33-46l33-7c5 56 141 63 141-1 0-78-155-14-162-118-5-82 145-84 179-34 5 7 8 16 11 25" id="aw"/><path fill="#3a414a" d="M84 4C-5 8 30-112 23-190h32v120c0 31 7 50 39 49 72-2 45-101 50-169h31l1 190h-30c-1-10 1-25-2-33-11 22-28 36-60 37" id="ax"/><g id="g"><use transform="matrix(0.06172839506172839,0,0,0.06172839506172839,0,0)" xlink:href="#aw"/><use transform="matrix(0.06172839506172839,0,0,0.06172839506172839,14.814814814814813,0)" xlink:href="#aa"/><use transform="matrix(0.06172839506172839,0,0,0.06172839506172839,20.98765432098765,0)" xlink:href="#aq"/><use transform="matrix(0.06172839506172839,0,0,0.06172839506172839,33.33333333333333,0)" xlink:href="#aa"/><use transform="matrix(0.06172839506172839,0,0,0.06172839506172839,39.50617283950617,0)" xlink:href="#ax"/><use transform="matrix(0.06172839506172839,0,0,0.06172839506172839,51.85185185185185,0)" xlink:href="#ae"/></g><path fill="#3a414a" d="M30 0v-248h33v221h125V0H30" id="ay"/><path fill="#3a414a" d="M240 0l2-218c-23 76-54 145-80 218h-23L58-218 59 0H30v-248h44l77 211c21-75 51-140 76-211h43V0h-30" id="az"/><g id="h"><use transform="matrix(0.06172839506172839,0,0,0.06172839506172839,0,0)" xlink:href="#ay"/><use transform="matrix(0.06172839506172839,0,0,0.06172839506172839,12.345679012345679,0)" xlink:href="#aq"/><use transform="matrix(0.06172839506172839,0,0,0.06172839506172839,24.691358024691358,0)" xlink:href="#ae"/><use transform="matrix(0.06172839506172839,0,0,0.06172839506172839,35.80246913580247,0)" xlink:href="#aa"/><use transform="matrix(0.06172839506172839,0,0,0.06172839506172839,41.97530864197531,0)" xlink:href="#az"/><use transform="matrix(0.06172839506172839,0,0,0.06172839506172839,60.4320987654321,0)" xlink:href="#aq"/><use transform="matrix(0.06172839506172839,0,0,0.06172839506172839,72.77777777777779,0)" xlink:href="#ab"/><use transform="matrix(0.06172839506172839,0,0,0.06172839506172839,77.65432098765433,0)" xlink:href="#al"/><use transform="matrix(0.06172839506172839,0,0,0.06172839506172839,90.00000000000001,0)" xlink:href="#aa"/><use transform="matrix(0.06172839506172839,0,0,0.06172839506172839,96.17283950617285,0)" xlink:href="#ad"/><use transform="matrix(0.06172839506172839,0,0,0.06172839506172839,108.51851851851853,0)" xlink:href="#al"/><use transform="matrix(0.06172839506172839,0,0,0.06172839506172839,120.86419753086422,0)" xlink:href="#aq"/><use transform="matrix(0.06172839506172839,0,0,0.06172839506172839,133.2098765432099,0)" xlink:href="#al"/><use transform="matrix(0.06172839506172839,0,0,0.06172839506172839,145.55555555555557,0)" xlink:href="#as"/><use transform="matrix(0.06172839506172839,0,0,0.06172839506172839,156.66666666666669,0)" xlink:href="#ad"/></g><path fill="#3a414a" d="M210-169c-67 3-38 105-44 169h-31v-121c0-29-5-50-35-48C34-165 62-65 56 0H25l-1-190h30c1 10-1 24 2 32 10-44 99-50 107 0 11-21 27-35 58-36 85-2 47 119 55 194h-31v-121c0-29-5-49-35-48" id="aA"/><g id="i"><use transform="matrix(0.06172839506172839,0,0,0.06172839506172839,0,0)" xlink:href="#ag"/><use transform="matrix(0.06172839506172839,0,0,0.06172839506172839,15.987654320987653,0)" xlink:href="#aq"/><use transform="matrix(0.06172839506172839,0,0,0.06172839506172839,28.333333333333332,0)" xlink:href="#aa"/><use transform="matrix(0.06172839506172839,0,0,0.06172839506172839,34.50617283950617,0)" xlink:href="#ad"/><use transform="matrix(0.06172839506172839,0,0,0.06172839506172839,46.85185185185185,0)" xlink:href="#aa"/><use transform="matrix(0.06172839506172839,0,0,0.06172839506172839,53.02469135802469,0)" xlink:href="#ab"/><use transform="matrix(0.06172839506172839,0,0,0.06172839506172839,57.901234567901234,0)" xlink:href="#aA"/><use transform="matrix(0.06172839506172839,0,0,0.06172839506172839,76.35802469135803,0)" xlink:href="#ad"/></g><path fill="#3a414a" d="M100-194c62-1 85 37 85 99 1 63-27 99-86 99S16-35 15-95c0-66 28-99 85-99zM99-20c44 1 53-31 53-75 0-43-8-75-51-75s-53 32-53 75 10 74 51 75" id="aB"/><g id="j"><use transform="matrix(0.06172839506172839,0,0,0.06172839506172839,0,0)" xlink:href="#ay"/><use transform="matrix(0.06172839506172839,0,0,0.06172839506172839,12.345679012345679,0)" xlink:href="#aB"/><use transform="matrix(0.06172839506172839,0,0,0.06172839506172839,24.691358024691358,0)" xlink:href="#as"/><use transform="matrix(0.06172839506172839,0,0,0.06172839506172839,35.80246913580247,0)" xlink:href="#aq"/><use transform="matrix(0.06172839506172839,0,0,0.06172839506172839,48.148148148148145,0)" xlink:href="#aa"/><use transform="matrix(0.06172839506172839,0,0,0.06172839506172839,54.32098765432099,0)" xlink:href="#ab"/><use transform="matrix(0.06172839506172839,0,0,0.06172839506172839,59.19753086419753,0)" xlink:href="#aB"/><use transform="matrix(0.06172839506172839,0,0,0.06172839506172839,71.54320987654322,0)" xlink:href="#al"/><use transform="matrix(0.06172839506172839,0,0,0.06172839506172839,83.8888888888889,0)" xlink:href="#af"/><use transform="matrix(0.06172839506172839,0,0,0.06172839506172839,90.06172839506173,0)" xlink:href="#ag"/></g><path fill="#3a414a" d="M63-220v92h138v28H63V0H30v-248h175v28H63" id="aC"/><g id="k"><use transform="matrix(0.06172839506172839,0,0,0.06172839506172839,0,0)" xlink:href="#ah"/><use transform="matrix(0.06172839506172839,0,0,0.06172839506172839,7.345679012345679,0)" xlink:href="#aC"/><use transform="matrix(0.06172839506172839,0,0,0.06172839506172839,20.864197530864196,0)" xlink:href="#aj"/><use transform="matrix(0.06172839506172839,0,0,0.06172839506172839,35.67901234567901,0)" xlink:href="#ak"/></g><path fill="#3a414a" d="M101-234c-31-9-42 10-38 44h38v23H63V0H32v-167H5v-23h27c-7-52 17-82 69-68v24" id="aD"/><g id="l"><use transform="matrix(0.06172839506172839,0,0,0.06172839506172839,0,0)" xlink:href="#am"/><use transform="matrix(0.06172839506172839,0,0,0.06172839506172839,12.716049382716047,0)" xlink:href="#ar"/><use transform="matrix(0.06172839506172839,0,0,0.06172839506172839,20.061728395061728,0)" xlink:href="#aq"/><use transform="matrix(0.06172839506172839,0,0,0.06172839506172839,32.407407407407405,0)" xlink:href="#aD"/><use transform="matrix(0.06172839506172839,0,0,0.06172839506172839,38.148148148148145,0)" xlink:href="#aD"/><use transform="matrix(0.06172839506172839,0,0,0.06172839506172839,44.32098765432099,0)" xlink:href="#ab"/><use transform="matrix(0.06172839506172839,0,0,0.06172839506172839,49.19753086419753,0)" xlink:href="#as"/></g><path fill="#3a414a" d="M177-190C167-65 218 103 67 71c-23-6-38-20-44-43l32-5c15 47 100 32 89-28v-30C133-14 115 1 83 1 29 1 15-40 15-95c0-56 16-97 71-98 29-1 48 16 59 35 1-10 0-23 2-32h30zM94-22c36 0 50-32 50-73 0-42-14-75-50-75-39 0-46 34-46 75s6 73 46 73" id="aE"/><g id="m"><use transform="matrix(0.06172839506172839,0,0,0.06172839506172839,0,0)" xlink:href="#ay"/><use transform="matrix(0.06172839506172839,0,0,0.06172839506172839,12.345679012345679,0)" xlink:href="#ab"/><use transform="matrix(0.06172839506172839,0,0,0.06172839506172839,17.22222222222222,0)" xlink:href="#aE"/><use transform="matrix(0.06172839506172839,0,0,0.06172839506172839,29.5679012345679,0)" xlink:href="#at"/><use transform="matrix(0.06172839506172839,0,0,0.06172839506172839,41.913580246913575,0)" xlink:href="#aa"/><use transform="matrix(0.06172839506172839,0,0,0.06172839506172839,48.08641975308642,0)" xlink:href="#ae"/></g><path fill="#3a414a" d="M85-194c31 0 48 13 60 33l-1-100h32l1 261h-30c-2-10 0-23-3-31C134-8 116 4 85 4 32 4 16-35 15-94c0-66 23-100 70-100zm9 24c-40 0-46 34-46 75 0 40 6 74 45 74 42 0 51-32 51-76 0-42-9-74-50-73" id="aF"/><g id="n"><use transform="matrix(0.06172839506172839,0,0,0.06172839506172839,0,0)" xlink:href="#af"/><use transform="matrix(0.06172839506172839,0,0,0.06172839506172839,6.172839506172839,0)" xlink:href="#al"/><use transform="matrix(0.06172839506172839,0,0,0.06172839506172839,18.51851851851852,0)" xlink:href="#as"/><use transform="matrix(0.06172839506172839,0,0,0.06172839506172839,29.62962962962963,0)" xlink:href="#ab"/><use transform="matrix(0.06172839506172839,0,0,0.06172839506172839,34.50617283950617,0)" xlink:href="#aF"/><use transform="matrix(0.06172839506172839,0,0,0.06172839506172839,46.85185185185185,0)" xlink:href="#ad"/><use transform="matrix(0.06172839506172839,0,0,0.06172839506172839,59.197530864197525,0)" xlink:href="#al"/><use transform="matrix(0.06172839506172839,0,0,0.06172839506172839,71.5432098765432,0)" xlink:href="#aa"/><use transform="matrix(0.06172839506172839,0,0,0.06172839506172839,77.71604938271604,0)" xlink:href="#ae"/></g><path fill="#3a414a" d="M233-177c-1 41-23 64-60 70L243 0h-38l-65-103H63V0H30v-248c88 3 205-21 203 71zM63-129c60-2 137 13 137-47 0-61-80-42-137-45v92" id="aG"/><g id="o"><use transform="matrix(0.06172839506172839,0,0,0.06172839506172839,0,0)" xlink:href="#aG"/><use transform="matrix(0.06172839506172839,0,0,0.06172839506172839,15.987654320987653,0)" xlink:href="#ad"/><use transform="matrix(0.06172839506172839,0,0,0.06172839506172839,28.333333333333332,0)" xlink:href="#ao"/><use transform="matrix(0.06172839506172839,0,0,0.06172839506172839,40.67901234567901,0)" xlink:href="#aB"/><use transform="matrix(0.06172839506172839,0,0,0.06172839506172839,53.02469135802469,0)" xlink:href="#ar"/><use transform="matrix(0.06172839506172839,0,0,0.06172839506172839,60.37037037037037,0)" xlink:href="#aa"/><use transform="matrix(0.06172839506172839,0,0,0.06172839506172839,66.5432098765432,0)" xlink:href="#ad"/><use transform="matrix(0.06172839506172839,0,0,0.06172839506172839,78.88888888888889,0)" xlink:href="#aF"/><use transform="matrix(0.06172839506172839,0,0,0.06172839506172839,91.23456790123457,0)" xlink:href="#am"/><use transform="matrix(0.06172839506172839,0,0,0.06172839506172839,103.95061728395062,0)" xlink:href="#ab"/><use transform="matrix(0.06172839506172839,0,0,0.06172839506172839,108.82716049382717,0)" xlink:href="#aA"/><use transform="matrix(0.06172839506172839,0,0,0.06172839506172839,127.28395061728395,0)" xlink:href="#ad"/></g><path fill="#3a414a" d="M108 0H70L1-190h34L89-25l56-165h34" id="aH"/><g id="p"><use transform="matrix(0.06172839506172839,0,0,0.06172839506172839,0,0)" xlink:href="#aG"/><use transform="matrix(0.06172839506172839,0,0,0.06172839506172839,15.987654320987653,0)" xlink:href="#ad"/><use transform="matrix(0.06172839506172839,0,0,0.06172839506172839,28.333333333333332,0)" xlink:href="#ae"/><use transform="matrix(0.06172839506172839,0,0,0.06172839506172839,39.44444444444444,0)" xlink:href="#aB"/><use transform="matrix(0.06172839506172839,0,0,0.06172839506172839,51.79012345679012,0)" xlink:href="#ac"/><use transform="matrix(0.06172839506172839,0,0,0.06172839506172839,56.666666666666664,0)" xlink:href="#aH"/><use transform="matrix(0.06172839506172839,0,0,0.06172839506172839,67.77777777777777,0)" xlink:href="#ad"/><use transform="matrix(0.06172839506172839,0,0,0.06172839506172839,80.12345679012346,0)" xlink:href="#aF"/><use transform="matrix(0.06172839506172839,0,0,0.06172839506172839,92.46913580246914,0)" xlink:href="#am"/><use transform="matrix(0.06172839506172839,0,0,0.06172839506172839,105.18518518518519,0)" xlink:href="#ab"/><use transform="matrix(0.06172839506172839,0,0,0.06172839506172839,110.06172839506173,0)" xlink:href="#aA"/><use transform="matrix(0.06172839506172839,0,0,0.06172839506172839,128.51851851851853,0)" xlink:href="#ad"/></g><g id="q"><use transform="matrix(0.06172839506172839,0,0,0.06172839506172839,0,0)" xlink:href="#az"/><use transform="matrix(0.06172839506172839,0,0,0.06172839506172839,18.456790123456788,0)" xlink:href="#aq"/><use transform="matrix(0.06172839506172839,0,0,0.06172839506172839,30.80246913580247,0)" xlink:href="#ab"/><use transform="matrix(0.06172839506172839,0,0,0.06172839506172839,35.67901234567901,0)" xlink:href="#al"/><use transform="matrix(0.06172839506172839,0,0,0.06172839506172839,48.02469135802469,0)" xlink:href="#aa"/><use transform="matrix(0.06172839506172839,0,0,0.06172839506172839,54.19753086419753,0)" xlink:href="#ad"/><use transform="matrix(0.06172839506172839,0,0,0.06172839506172839,66.54320987654322,0)" xlink:href="#al"/><use transform="matrix(0.06172839506172839,0,0,0.06172839506172839,78.8888888888889,0)" xlink:href="#aq"/><use transform="matrix(0.06172839506172839,0,0,0.06172839506172839,91.23456790123458,0)" xlink:href="#al"/><use transform="matrix(0.06172839506172839,0,0,0.06172839506172839,103.58024691358027,0)" xlink:href="#as"/><use transform="matrix(0.06172839506172839,0,0,0.06172839506172839,114.69135802469138,0)" xlink:href="#ad"/></g><g id="r"><use transform="matrix(0.06172839506172839,0,0,0.06172839506172839,0,0)" xlink:href="#aw"/><use transform="matrix(0.06172839506172839,0,0,0.06172839506172839,14.814814814814813,0)" xlink:href="#as"/><use transform="matrix(0.06172839506172839,0,0,0.06172839506172839,25.925925925925924,0)" xlink:href="#at"/><use transform="matrix(0.06172839506172839,0,0,0.06172839506172839,38.2716049382716,0)" xlink:href="#ad"/><use transform="matrix(0.06172839506172839,0,0,0.06172839506172839,50.61728395061728,0)" xlink:href="#aF"/><use transform="matrix(0.06172839506172839,0,0,0.06172839506172839,62.962962962962955,0)" xlink:href="#ax"/><use transform="matrix(0.06172839506172839,0,0,0.06172839506172839,75.30864197530863,0)" xlink:href="#ac"/><use transform="matrix(0.06172839506172839,0,0,0.06172839506172839,80.18518518518518,0)" xlink:href="#ad"/><use transform="matrix(0.06172839506172839,0,0,0.06172839506172839,92.53086419753086,0)" xlink:href="#ae"/></g><g id="s"><use transform="matrix(0.06172839506172839,0,0,0.06172839506172839,0,0)" xlink:href="#aw"/><use transform="matrix(0.06172839506172839,0,0,0.06172839506172839,14.814814814814813,0)" xlink:href="#as"/><use transform="matrix(0.06172839506172839,0,0,0.06172839506172839,25.925925925925924,0)" xlink:href="#at"/><use transform="matrix(0.06172839506172839,0,0,0.06172839506172839,38.2716049382716,0)" xlink:href="#ad"/><use transform="matrix(0.06172839506172839,0,0,0.06172839506172839,50.61728395061728,0)" xlink:href="#aF"/><use transform="matrix(0.06172839506172839,0,0,0.06172839506172839,62.962962962962955,0)" xlink:href="#ax"/><use transform="matrix(0.06172839506172839,0,0,0.06172839506172839,75.30864197530863,0)" xlink:href="#ac"/><use transform="matrix(0.06172839506172839,0,0,0.06172839506172839,80.18518518518518,0)" xlink:href="#ad"/><use transform="matrix(0.06172839506172839,0,0,0.06172839506172839,92.53086419753086,0)" xlink:href="#aF"/><use transform="matrix(0.06172839506172839,0,0,0.06172839506172839,104.87654320987654,0)" xlink:href="#ag"/><use transform="matrix(0.06172839506172839,0,0,0.06172839506172839,120.8641975308642,0)" xlink:href="#aq"/><use transform="matrix(0.06172839506172839,0,0,0.06172839506172839,133.20987654320987,0)" xlink:href="#aa"/><use transform="matrix(0.06172839506172839,0,0,0.06172839506172839,139.3827160493827,0)" xlink:href="#ad"/></g><path fill="#3a414a" d="M212-179c-10-28-35-45-73-45-59 0-87 40-87 99 0 60 29 101 89 101 43 0 62-24 78-52l27 14C228-24 195 4 139 4 59 4 22-46 18-125c-6-104 99-153 187-111 19 9 31 26 39 46" id="aI"/><g id="t"><use transform="matrix(0.06172839506172839,0,0,0.06172839506172839,0,0)" xlink:href="#aI"/><use transform="matrix(0.06172839506172839,0,0,0.06172839506172839,15.987654320987653,0)" xlink:href="#aB"/><use transform="matrix(0.06172839506172839,0,0,0.06172839506172839,28.333333333333332,0)" xlink:href="#aA"/><use transform="matrix(0.06172839506172839,0,0,0.06172839506172839,46.79012345679012,0)" xlink:href="#ao"/><use transform="matrix(0.06172839506172839,0,0,0.06172839506172839,59.1358024691358,0)" xlink:href="#ac"/><use transform="matrix(0.06172839506172839,0,0,0.06172839506172839,64.01234567901234,0)" xlink:href="#ad"/><use transform="matrix(0.06172839506172839,0,0,0.06172839506172839,76.35802469135803,0)" xlink:href="#aa"/><use transform="matrix(0.06172839506172839,0,0,0.06172839506172839,82.53086419753086,0)" xlink:href="#ad"/><use transform="matrix(0.06172839506172839,0,0,0.06172839506172839,94.87654320987654,0)" xlink:href="#aF"/><use transform="matrix(0.06172839506172839,0,0,0.06172839506172839,107.22222222222223,0)" xlink:href="#ag"/><use transform="matrix(0.06172839506172839,0,0,0.06172839506172839,123.20987654320989,0)" xlink:href="#aq"/><use transform="matrix(0.06172839506172839,0,0,0.06172839506172839,135.55555555555557,0)" xlink:href="#aa"/><use transform="matrix(0.06172839506172839,0,0,0.06172839506172839,141.7283950617284,0)" xlink:href="#ad"/></g><g id="u"><use transform="matrix(0.06172839506172839,0,0,0.06172839506172839,0,0)" xlink:href="#Z"/><use transform="matrix(0.06172839506172839,0,0,0.06172839506172839,15.987654320987653,0)" xlink:href="#aa"/><use transform="matrix(0.06172839506172839,0,0,0.06172839506172839,22.160493827160494,0)" xlink:href="#ab"/><use transform="matrix(0.06172839506172839,0,0,0.06172839506172839,27.037037037037038,0)" xlink:href="#ac"/><use transform="matrix(0.06172839506172839,0,0,0.06172839506172839,31.913580246913586,0)" xlink:href="#ab"/><use transform="matrix(0.06172839506172839,0,0,0.06172839506172839,36.79012345679013,0)" xlink:href="#aa"/><use transform="matrix(0.06172839506172839,0,0,0.06172839506172839,42.96296296296297,0)" xlink:href="#an"/><use transform="matrix(0.06172839506172839,0,0,0.06172839506172839,54.074074074074076,0)" xlink:href="#af"/><use transform="matrix(0.06172839506172839,0,0,0.06172839506172839,60.24691358024692,0)" xlink:href="#ag"/></g><g id="v"><use transform="matrix(0.06172839506172839,0,0,0.06172839506172839,0,0)" xlink:href="#am"/><use transform="matrix(0.06172839506172839,0,0,0.06172839506172839,12.716049382716047,0)" xlink:href="#ar"/><use transform="matrix(0.06172839506172839,0,0,0.06172839506172839,20.061728395061728,0)" xlink:href="#aq"/><use transform="matrix(0.06172839506172839,0,0,0.06172839506172839,32.407407407407405,0)" xlink:href="#aD"/><use transform="matrix(0.06172839506172839,0,0,0.06172839506172839,38.148148148148145,0)" xlink:href="#aD"/><use transform="matrix(0.06172839506172839,0,0,0.06172839506172839,44.32098765432099,0)" xlink:href="#ab"/><use transform="matrix(0.06172839506172839,0,0,0.06172839506172839,49.19753086419753,0)" xlink:href="#as"/><use transform="matrix(0.06172839506172839,0,0,0.06172839506172839,60.308641975308646,0)" xlink:href="#ay"/><use transform="matrix(0.06172839506172839,0,0,0.06172839506172839,72.65432098765433,0)" xlink:href="#ab"/><use transform="matrix(0.06172839506172839,0,0,0.06172839506172839,77.53086419753087,0)" xlink:href="#aE"/><use transform="matrix(0.06172839506172839,0,0,0.06172839506172839,89.87654320987656,0)" xlink:href="#at"/><use transform="matrix(0.06172839506172839,0,0,0.06172839506172839,102.22222222222224,0)" xlink:href="#aa"/><use transform="matrix(0.06172839506172839,0,0,0.06172839506172839,108.39506172839508,0)" xlink:href="#af"/><use transform="matrix(0.06172839506172839,0,0,0.06172839506172839,114.56790123456791,0)" xlink:href="#ag"/></g><g id="w"><use transform="matrix(0.06172839506172839,0,0,0.06172839506172839,0,0)" xlink:href="#am"/><use transform="matrix(0.06172839506172839,0,0,0.06172839506172839,11.049382716049381,0)" xlink:href="#ad"/><use transform="matrix(0.06172839506172839,0,0,0.06172839506172839,23.39506172839506,0)" xlink:href="#as"/><use transform="matrix(0.06172839506172839,0,0,0.06172839506172839,34.50617283950617,0)" xlink:href="#at"/><use transform="matrix(0.06172839506172839,0,0,0.06172839506172839,46.85185185185185,0)" xlink:href="#al"/><use transform="matrix(0.06172839506172839,0,0,0.06172839506172839,59.197530864197525,0)" xlink:href="#ab"/><use transform="matrix(0.06172839506172839,0,0,0.06172839506172839,64.07407407407406,0)" xlink:href="#as"/><use transform="matrix(0.06172839506172839,0,0,0.06172839506172839,75.18518518518518,0)" xlink:href="#ab"/><use transform="matrix(0.06172839506172839,0,0,0.06172839506172839,80.06172839506172,0)" xlink:href="#aq"/><use transform="matrix(0.06172839506172839,0,0,0.06172839506172839,92.4074074074074,0)" xlink:href="#al"/><use transform="matrix(0.06172839506172839,0,0,0.06172839506172839,104.75308641975309,0)" xlink:href="#af"/><use transform="matrix(0.06172839506172839,0,0,0.06172839506172839,110.92592592592592,0)" xlink:href="#ag"/></g><g id="x"><use transform="matrix(0.06172839506172839,0,0,0.06172839506172839,0,0)" xlink:href="#aI"/><use transform="matrix(0.06172839506172839,0,0,0.06172839506172839,15.987654320987653,0)" xlink:href="#ab"/><use transform="matrix(0.06172839506172839,0,0,0.06172839506172839,20.864197530864196,0)" xlink:href="#aa"/><use transform="matrix(0.06172839506172839,0,0,0.06172839506172839,27.037037037037035,0)" xlink:href="#an"/></g><path fill="#3a414a" d="M209 0H11v-25l151-195H24v-28h176v25L50-27h159V0" id="aJ"/><g id="y"><use transform="matrix(0.06172839506172839,0,0,0.06172839506172839,0,0)" xlink:href="#aJ"/><use transform="matrix(0.06172839506172839,0,0,0.06172839506172839,13.518518518518517,0)" xlink:href="#aB"/><use transform="matrix(0.06172839506172839,0,0,0.06172839506172839,25.864197530864196,0)" xlink:href="#al"/><use transform="matrix(0.06172839506172839,0,0,0.06172839506172839,38.20987654320987,0)" xlink:href="#ad"/><use transform="matrix(0.06172839506172839,0,0,0.06172839506172839,50.55555555555555,0)" xlink:href="#ae"/></g><path fill="#3a414a" d="M190 0L58-211 59 0H30v-248h39L202-35l-2-213h31V0h-41" id="aK"/><g id="z"><use transform="matrix(0.06172839506172839,0,0,0.06172839506172839,0,0)" xlink:href="#aK"/><use transform="matrix(0.06172839506172839,0,0,0.06172839506172839,15.987654320987653,0)" xlink:href="#aq"/><use transform="matrix(0.06172839506172839,0,0,0.06172839506172839,28.333333333333332,0)" xlink:href="#aA"/><use transform="matrix(0.06172839506172839,0,0,0.06172839506172839,46.79012345679012,0)" xlink:href="#ad"/></g><g id="A"><use transform="matrix(0.06172839506172839,0,0,0.06172839506172839,0,0)" xlink:href="#ag"/><use transform="matrix(0.06172839506172839,0,0,0.06172839506172839,15.987654320987653,0)" xlink:href="#ad"/><use transform="matrix(0.06172839506172839,0,0,0.06172839506172839,28.333333333333332,0)" xlink:href="#ae"/><use transform="matrix(0.06172839506172839,0,0,0.06172839506172839,39.44444444444444,0)" xlink:href="#as"/><use transform="matrix(0.06172839506172839,0,0,0.06172839506172839,50.55555555555556,0)" xlink:href="#ar"/><use transform="matrix(0.06172839506172839,0,0,0.06172839506172839,57.901234567901234,0)" xlink:href="#ab"/><use transform="matrix(0.06172839506172839,0,0,0.06172839506172839,62.77777777777778,0)" xlink:href="#ao"/><use transform="matrix(0.06172839506172839,0,0,0.06172839506172839,75.12345679012346,0)" xlink:href="#aa"/><use transform="matrix(0.06172839506172839,0,0,0.06172839506172839,81.29629629629629,0)" xlink:href="#ab"/><use transform="matrix(0.06172839506172839,0,0,0.06172839506172839,86.17283950617283,0)" xlink:href="#aB"/><use transform="matrix(0.06172839506172839,0,0,0.06172839506172839,98.51851851851852,0)" xlink:href="#al"/></g><path fill="#3a414a" d="M9 0v-24l116-142H16v-24h144v24L44-24h123V0H9" id="aL"/><g id="B"><use transform="matrix(0.06172839506172839,0,0,0.06172839506172839,0,0)" xlink:href="#aI"/><use transform="matrix(0.06172839506172839,0,0,0.06172839506172839,15.987654320987653,0)" xlink:href="#ab"/><use transform="matrix(0.06172839506172839,0,0,0.06172839506172839,20.864197530864196,0)" xlink:href="#aa"/><use transform="matrix(0.06172839506172839,0,0,0.06172839506172839,27.037037037037035,0)" xlink:href="#ab"/><use transform="matrix(0.06172839506172839,0,0,0.06172839506172839,31.91358024691358,0)" xlink:href="#aL"/><use transform="matrix(0.06172839506172839,0,0,0.06172839506172839,43.02469135802468,0)" xlink:href="#ad"/><use transform="matrix(0.06172839506172839,0,0,0.06172839506172839,55.37037037037036,0)" xlink:href="#al"/><use transform="matrix(0.06172839506172839,0,0,0.06172839506172839,67.71604938271604,0)" xlink:href="#ae"/></g><path fill="#3a414a" d="M115-194c53 0 69 39 70 98 0 66-23 100-70 100C84 3 66-7 56-30L54 0H23l1-261h32v101c10-23 28-34 59-34zm-8 174c40 0 45-34 45-75 0-40-5-75-45-74-42 0-51 32-51 76 0 43 10 73 51 73" id="aM"/><g id="C"><use transform="matrix(0.06172839506172839,0,0,0.06172839506172839,0,0)" xlink:href="#ai"/><use transform="matrix(0.06172839506172839,0,0,0.06172839506172839,14.814814814814813,0)" xlink:href="#at"/><use transform="matrix(0.06172839506172839,0,0,0.06172839506172839,27.160493827160494,0)" xlink:href="#aB"/><use transform="matrix(0.06172839506172839,0,0,0.06172839506172839,39.50617283950617,0)" xlink:href="#al"/><use transform="matrix(0.06172839506172839,0,0,0.06172839506172839,51.85185185185185,0)" xlink:href="#ad"/><use transform="matrix(0.06172839506172839,0,0,0.06172839506172839,64.19753086419753,0)" xlink:href="#aK"/><use transform="matrix(0.06172839506172839,0,0,0.06172839506172839,80.18518518518519,0)" xlink:href="#ax"/><use transform="matrix(0.06172839506172839,0,0,0.06172839506172839,92.53086419753087,0)" xlink:href="#aA"/><use transform="matrix(0.06172839506172839,0,0,0.06172839506172839,110.98765432098766,0)" xlink:href="#aM"/><use transform="matrix(0.06172839506172839,0,0,0.06172839506172839,123.33333333333334,0)" xlink:href="#ad"/><use transform="matrix(0.06172839506172839,0,0,0.06172839506172839,135.679012345679,0)" xlink:href="#ar"/></g><path fill="#3a414a" d="M30 0v-248h187v28H63v79h144v27H63v87h162V0H30" id="aN"/><g id="D"><use transform="matrix(0.06172839506172839,0,0,0.06172839506172839,0,0)" xlink:href="#aN"/><use transform="matrix(0.06172839506172839,0,0,0.06172839506172839,14.814814814814813,0)" xlink:href="#aA"/><use transform="matrix(0.06172839506172839,0,0,0.06172839506172839,33.2716049382716,0)" xlink:href="#aq"/><use transform="matrix(0.06172839506172839,0,0,0.06172839506172839,45.61728395061728,0)" xlink:href="#ab"/><use transform="matrix(0.06172839506172839,0,0,0.06172839506172839,50.49382716049382,0)" xlink:href="#ac"/></g><path fill="#3a414a" d="M101-251c68 0 85 55 85 127S166 4 100 4C33 4 14-52 14-124c0-73 17-127 87-127zm-1 229c47 0 54-49 54-102s-4-102-53-102c-51 0-55 48-55 102 0 53 5 102 54 102" id="aO"/><g id="E"><use transform="matrix(0.06172839506172839,0,0,0.06172839506172839,0,0)" xlink:href="#ap"/><use transform="matrix(0.06172839506172839,0,0,0.06172839506172839,13.148148148148147,0)" xlink:href="#aq"/><use transform="matrix(0.06172839506172839,0,0,0.06172839506172839,25.493827160493826,0)" xlink:href="#ar"/><use transform="matrix(0.06172839506172839,0,0,0.06172839506172839,32.839506172839506,0)" xlink:href="#as"/><use transform="matrix(0.06172839506172839,0,0,0.06172839506172839,43.95061728395062,0)" xlink:href="#at"/><use transform="matrix(0.06172839506172839,0,0,0.06172839506172839,56.2962962962963,0)" xlink:href="#aq"/><use transform="matrix(0.06172839506172839,0,0,0.06172839506172839,68.64197530864197,0)" xlink:href="#ar"/><use transform="matrix(0.06172839506172839,0,0,0.06172839506172839,75.98765432098766,0)" xlink:href="#ah"/><use transform="matrix(0.06172839506172839,0,0,0.06172839506172839,83.33333333333334,0)" xlink:href="#au"/><use transform="matrix(0.06172839506172839,0,0,0.06172839506172839,95.67901234567903,0)" xlink:href="#aO"/><use transform="matrix(0.06172839506172839,0,0,0.06172839506172839,108.02469135802471,0)" xlink:href="#ak"/></g><g id="F"><use transform="matrix(0.06172839506172839,0,0,0.06172839506172839,0,0)" xlink:href="#aG"/><use transform="matrix(0.06172839506172839,0,0,0.06172839506172839,15.987654320987653,0)" xlink:href="#ad"/><use transform="matrix(0.06172839506172839,0,0,0.06172839506172839,28.333333333333332,0)" xlink:href="#ao"/><use transform="matrix(0.06172839506172839,0,0,0.06172839506172839,40.67901234567901,0)" xlink:href="#aB"/><use transform="matrix(0.06172839506172839,0,0,0.06172839506172839,53.02469135802469,0)" xlink:href="#ar"/><use transform="matrix(0.06172839506172839,0,0,0.06172839506172839,60.37037037037037,0)" xlink:href="#aa"/><use transform="matrix(0.06172839506172839,0,0,0.06172839506172839,66.5432098765432,0)" xlink:href="#ae"/></g><g id="G"><use transform="matrix(0.06172839506172839,0,0,0.06172839506172839,0,0)" xlink:href="#ag"/><use transform="matrix(0.06172839506172839,0,0,0.06172839506172839,15.987654320987653,0)" xlink:href="#aq"/><use transform="matrix(0.06172839506172839,0,0,0.06172839506172839,28.333333333333332,0)" xlink:href="#aa"/><use transform="matrix(0.06172839506172839,0,0,0.06172839506172839,34.50617283950617,0)" xlink:href="#ad"/><use transform="matrix(0.06172839506172839,0,0,0.06172839506172839,46.85185185185185,0)" xlink:href="#aG"/><use transform="matrix(0.06172839506172839,0,0,0.06172839506172839,62.8395061728395,0)" xlink:href="#ad"/><use transform="matrix(0.06172839506172839,0,0,0.06172839506172839,75.18518518518518,0)" xlink:href="#ao"/><use transform="matrix(0.06172839506172839,0,0,0.06172839506172839,87.53086419753086,0)" xlink:href="#aB"/><use transform="matrix(0.06172839506172839,0,0,0.06172839506172839,99.87654320987654,0)" xlink:href="#ar"/><use transform="matrix(0.06172839506172839,0,0,0.06172839506172839,107.22222222222223,0)" xlink:href="#aa"/><use transform="matrix(0.06172839506172839,0,0,0.06172839506172839,113.39506172839506,0)" xlink:href="#ad"/><use transform="matrix(0.06172839506172839,0,0,0.06172839506172839,125.74074074074075,0)" xlink:href="#aF"/></g><g id="H"><use transform="matrix(0.06172839506172839,0,0,0.06172839506172839,0,0)" xlink:href="#aI"/><use transform="matrix(0.06172839506172839,0,0,0.06172839506172839,15.987654320987653,0)" xlink:href="#ab"/><use transform="matrix(0.06172839506172839,0,0,0.06172839506172839,20.864197530864196,0)" xlink:href="#aa"/><use transform="matrix(0.06172839506172839,0,0,0.06172839506172839,27.037037037037035,0)" xlink:href="#ab"/><use transform="matrix(0.06172839506172839,0,0,0.06172839506172839,31.91358024691358,0)" xlink:href="#aL"/><use transform="matrix(0.06172839506172839,0,0,0.06172839506172839,43.02469135802468,0)" xlink:href="#ad"/><use transform="matrix(0.06172839506172839,0,0,0.06172839506172839,55.37037037037036,0)" xlink:href="#al"/><use transform="matrix(0.06172839506172839,0,0,0.06172839506172839,67.71604938271604,0)" xlink:href="#af"/><use transform="matrix(0.06172839506172839,0,0,0.06172839506172839,73.88888888888887,0)" xlink:href="#ag"/></g><path fill="#3a414a" d="M266 0h-40l-56-210L115 0H75L2-248h35L96-30l15-64 43-154h32l59 218 59-218h35" id="aP"/><path fill="#3a414a" d="M143 0L79-87 56-68V0H24v-261h32v163l83-92h37l-77 82L181 0h-38" id="aQ"/><g id="I"><use transform="matrix(0.06172839506172839,0,0,0.06172839506172839,0,0)" xlink:href="#aP"/><use transform="matrix(0.06172839506172839,0,0,0.06172839506172839,20.493827160493826,0)" xlink:href="#aB"/><use transform="matrix(0.06172839506172839,0,0,0.06172839506172839,32.839506172839506,0)" xlink:href="#ar"/><use transform="matrix(0.06172839506172839,0,0,0.06172839506172839,40.18518518518518,0)" xlink:href="#aQ"/></g><path fill="#3a414a" d="M140-251c81 0 123 46 123 126C263-46 219 4 140 4 59 4 17-45 17-125s42-126 123-126zm0 227c63 0 89-41 89-101s-29-99-89-99c-61 0-89 39-89 99S79-25 140-24" id="aR"/><g id="J"><use transform="matrix(0.06172839506172839,0,0,0.06172839506172839,0,0)" xlink:href="#aR"/><use transform="matrix(0.06172839506172839,0,0,0.06172839506172839,17.28395061728395,0)" xlink:href="#ar"/><use transform="matrix(0.06172839506172839,0,0,0.06172839506172839,24.629629629629626,0)" xlink:href="#aF"/><use transform="matrix(0.06172839506172839,0,0,0.06172839506172839,36.9753086419753,0)" xlink:href="#ad"/><use transform="matrix(0.06172839506172839,0,0,0.06172839506172839,49.32098765432098,0)" xlink:href="#ar"/><use transform="matrix(0.06172839506172839,0,0,0.06172839506172839,56.66666666666666,0)" xlink:href="#ae"/></g><g id="K"><use transform="matrix(0.06172839506172839,0,0,0.06172839506172839,0,0)" xlink:href="#aI"/><use transform="matrix(0.06172839506172839,0,0,0.06172839506172839,15.987654320987653,0)" xlink:href="#aB"/><use transform="matrix(0.06172839506172839,0,0,0.06172839506172839,28.333333333333332,0)" xlink:href="#aA"/><use transform="matrix(0.06172839506172839,0,0,0.06172839506172839,46.79012345679012,0)" xlink:href="#ao"/><use transform="matrix(0.06172839506172839,0,0,0.06172839506172839,59.1358024691358,0)" xlink:href="#ac"/><use transform="matrix(0.06172839506172839,0,0,0.06172839506172839,64.01234567901234,0)" xlink:href="#ad"/><use transform="matrix(0.06172839506172839,0,0,0.06172839506172839,76.35802469135803,0)" xlink:href="#aa"/><use transform="matrix(0.06172839506172839,0,0,0.06172839506172839,82.53086419753086,0)" xlink:href="#ab"/><use transform="matrix(0.06172839506172839,0,0,0.06172839506172839,87.4074074074074,0)" xlink:href="#aB"/><use transform="matrix(0.06172839506172839,0,0,0.06172839506172839,99.75308641975309,0)" xlink:href="#al"/><use transform="matrix(0.06172839506172839,0,0,0.06172839506172839,112.09876543209877,0)" xlink:href="#ag"/><use transform="matrix(0.06172839506172839,0,0,0.06172839506172839,128.08641975308643,0)" xlink:href="#aq"/><use transform="matrix(0.06172839506172839,0,0,0.06172839506172839,140.4320987654321,0)" xlink:href="#aa"/><use transform="matrix(0.06172839506172839,0,0,0.06172839506172839,146.60493827160494,0)" xlink:href="#ad"/></g><g id="L"><use transform="matrix(0.06172839506172839,0,0,0.06172839506172839,0,0)" xlink:href="#af"/><use transform="matrix(0.06172839506172839,0,0,0.06172839506172839,6.172839506172839,0)" xlink:href="#al"/><use transform="matrix(0.06172839506172839,0,0,0.06172839506172839,18.51851851851852,0)" xlink:href="#as"/><use transform="matrix(0.06172839506172839,0,0,0.06172839506172839,29.62962962962963,0)" xlink:href="#ab"/><use transform="matrix(0.06172839506172839,0,0,0.06172839506172839,34.50617283950617,0)" xlink:href="#aF"/><use transform="matrix(0.06172839506172839,0,0,0.06172839506172839,46.85185185185185,0)" xlink:href="#ad"/><use transform="matrix(0.06172839506172839,0,0,0.06172839506172839,59.197530864197525,0)" xlink:href="#al"/><use transform="matrix(0.06172839506172839,0,0,0.06172839506172839,71.5432098765432,0)" xlink:href="#aa"/><use transform="matrix(0.06172839506172839,0,0,0.06172839506172839,77.71604938271604,0)" xlink:href="#af"/><use transform="matrix(0.06172839506172839,0,0,0.06172839506172839,83.88888888888887,0)" xlink:href="#ag"/></g><g id="M"><use transform="matrix(0.06172839506172839,0,0,0.06172839506172839,0,0)" xlink:href="#aG"/><use transform="matrix(0.06172839506172839,0,0,0.06172839506172839,15.987654320987653,0)" xlink:href="#ad"/><use transform="matrix(0.06172839506172839,0,0,0.06172839506172839,28.333333333333332,0)" xlink:href="#ao"/><use transform="matrix(0.06172839506172839,0,0,0.06172839506172839,40.67901234567901,0)" xlink:href="#aB"/><use transform="matrix(0.06172839506172839,0,0,0.06172839506172839,53.02469135802469,0)" xlink:href="#ar"/><use transform="matrix(0.06172839506172839,0,0,0.06172839506172839,60.37037037037037,0)" xlink:href="#aa"/><use transform="matrix(0.06172839506172839,0,0,0.06172839506172839,66.5432098765432,0)" xlink:href="#af"/><use transform="matrix(0.06172839506172839,0,0,0.06172839506172839,72.71604938271604,0)" xlink:href="#ag"/></g><path fill="#3a414a" d="M205 0l-28-72H64L36 0H1l101-248h38L239 0h-34zm-38-99l-47-123c-12 45-31 82-46 123h93" id="aS"/><g id="N"><use transform="matrix(0.06172839506172839,0,0,0.06172839506172839,0,0)" xlink:href="#aS"/><use transform="matrix(0.06172839506172839,0,0,0.06172839506172839,14.814814814814813,0)" xlink:href="#ae"/><use transform="matrix(0.06172839506172839,0,0,0.06172839506172839,25.925925925925924,0)" xlink:href="#ae"/><use transform="matrix(0.06172839506172839,0,0,0.06172839506172839,37.03703703703704,0)" xlink:href="#ab"/><use transform="matrix(0.06172839506172839,0,0,0.06172839506172839,41.91358024691358,0)" xlink:href="#aE"/><use transform="matrix(0.06172839506172839,0,0,0.06172839506172839,54.25925925925926,0)" xlink:href="#al"/><use transform="matrix(0.06172839506172839,0,0,0.06172839506172839,66.60493827160494,0)" xlink:href="#ad"/><use transform="matrix(0.06172839506172839,0,0,0.06172839506172839,78.95061728395062,0)" xlink:href="#aF"/><use transform="matrix(0.06172839506172839,0,0,0.06172839506172839,91.2962962962963,0)" xlink:href="#am"/><use transform="matrix(0.06172839506172839,0,0,0.06172839506172839,102.34567901234568,0)" xlink:href="#ad"/><use transform="matrix(0.06172839506172839,0,0,0.06172839506172839,114.69135802469137,0)" xlink:href="#as"/><use transform="matrix(0.06172839506172839,0,0,0.06172839506172839,125.80246913580248,0)" xlink:href="#at"/><use transform="matrix(0.06172839506172839,0,0,0.06172839506172839,138.14814814814815,0)" xlink:href="#al"/><use transform="matrix(0.06172839506172839,0,0,0.06172839506172839,150.49382716049382,0)" xlink:href="#ab"/><use transform="matrix(0.06172839506172839,0,0,0.06172839506172839,155.37037037037035,0)" xlink:href="#as"/><use transform="matrix(0.06172839506172839,0,0,0.06172839506172839,166.48148148148147,0)" xlink:href="#ab"/><use transform="matrix(0.06172839506172839,0,0,0.06172839506172839,171.358024691358,0)" xlink:href="#aq"/><use transform="matrix(0.06172839506172839,0,0,0.06172839506172839,183.70370370370367,0)" xlink:href="#al"/><use transform="matrix(0.06172839506172839,0,0,0.06172839506172839,196.04938271604934,0)" xlink:href="#af"/><use transform="matrix(0.06172839506172839,0,0,0.06172839506172839,202.22222222222217,0)" xlink:href="#ag"/></g><g id="O"><use transform="matrix(0.06172839506172839,0,0,0.06172839506172839,0,0)" xlink:href="#am"/><use transform="matrix(0.06172839506172839,0,0,0.06172839506172839,11.049382716049381,0)" xlink:href="#ad"/><use transform="matrix(0.06172839506172839,0,0,0.06172839506172839,23.39506172839506,0)" xlink:href="#as"/><use transform="matrix(0.06172839506172839,0,0,0.06172839506172839,34.50617283950617,0)" xlink:href="#at"/><use transform="matrix(0.06172839506172839,0,0,0.06172839506172839,46.85185185185185,0)" xlink:href="#al"/><use transform="matrix(0.06172839506172839,0,0,0.06172839506172839,59.197530864197525,0)" xlink:href="#ab"/><use transform="matrix(0.06172839506172839,0,0,0.06172839506172839,64.07407407407406,0)" xlink:href="#as"/><use transform="matrix(0.06172839506172839,0,0,0.06172839506172839,75.18518518518518,0)" xlink:href="#ab"/><use transform="matrix(0.06172839506172839,0,0,0.06172839506172839,80.06172839506172,0)" xlink:href="#aq"/><use transform="matrix(0.06172839506172839,0,0,0.06172839506172839,92.4074074074074,0)" xlink:href="#al"/><use transform="matrix(0.06172839506172839,0,0,0.06172839506172839,104.75308641975309,0)" xlink:href="#ae"/></g><g id="P"><use transform="matrix(0.06172839506172839,0,0,0.06172839506172839,0,0)" xlink:href="#aw"/><use transform="matrix(0.06172839506172839,0,0,0.06172839506172839,14.814814814814813,0)" xlink:href="#ao"/><use transform="matrix(0.06172839506172839,0,0,0.06172839506172839,27.160493827160494,0)" xlink:href="#ad"/><use transform="matrix(0.06172839506172839,0,0,0.06172839506172839,39.50617283950617,0)" xlink:href="#as"/><use transform="matrix(0.06172839506172839,0,0,0.06172839506172839,50.61728395061728,0)" xlink:href="#ab"/><use transform="matrix(0.06172839506172839,0,0,0.06172839506172839,55.49382716049382,0)" xlink:href="#aq"/><use transform="matrix(0.06172839506172839,0,0,0.06172839506172839,67.8395061728395,0)" xlink:href="#ac"/><use transform="matrix(0.06172839506172839,0,0,0.06172839506172839,72.71604938271605,0)" xlink:href="#aa"/><use transform="matrix(0.06172839506172839,0,0,0.06172839506172839,78.88888888888889,0)" xlink:href="#an"/></g><g id="Q"><use transform="matrix(0.06172839506172839,0,0,0.06172839506172839,0,0)" xlink:href="#ag"/><use transform="matrix(0.06172839506172839,0,0,0.06172839506172839,15.987654320987653,0)" xlink:href="#ad"/><use transform="matrix(0.06172839506172839,0,0,0.06172839506172839,28.333333333333332,0)" xlink:href="#ao"/><use transform="matrix(0.06172839506172839,0,0,0.06172839506172839,40.67901234567901,0)" xlink:href="#aq"/><use transform="matrix(0.06172839506172839,0,0,0.06172839506172839,53.02469135802469,0)" xlink:href="#ar"/><use transform="matrix(0.06172839506172839,0,0,0.06172839506172839,60.37037037037037,0)" xlink:href="#aa"/><use transform="matrix(0.06172839506172839,0,0,0.06172839506172839,66.5432098765432,0)" xlink:href="#aA"/><use transform="matrix(0.06172839506172839,0,0,0.06172839506172839,84.99999999999999,0)" xlink:href="#ad"/><use transform="matrix(0.06172839506172839,0,0,0.06172839506172839,97.34567901234567,0)" xlink:href="#al"/><use transform="matrix(0.06172839506172839,0,0,0.06172839506172839,109.69135802469135,0)" xlink:href="#aa"/><use transform="matrix(0.06172839506172839,0,0,0.06172839506172839,115.86419753086419,0)" xlink:href="#af"/><use transform="matrix(0.06172839506172839,0,0,0.06172839506172839,122.03703703703702,0)" xlink:href="#ag"/></g><g id="R"><use transform="matrix(0.06172839506172839,0,0,0.06172839506172839,0,0)" xlink:href="#ag"/><use transform="matrix(0.06172839506172839,0,0,0.06172839506172839,15.987654320987653,0)" xlink:href="#ad"/><use transform="matrix(0.06172839506172839,0,0,0.06172839506172839,28.333333333333332,0)" xlink:href="#ao"/><use transform="matrix(0.06172839506172839,0,0,0.06172839506172839,40.67901234567901,0)" xlink:href="#aq"/><use transform="matrix(0.06172839506172839,0,0,0.06172839506172839,53.02469135802469,0)" xlink:href="#ar"/><use transform="matrix(0.06172839506172839,0,0,0.06172839506172839,60.37037037037037,0)" xlink:href="#aa"/><use transform="matrix(0.06172839506172839,0,0,0.06172839506172839,66.5432098765432,0)" xlink:href="#aA"/><use transform="matrix(0.06172839506172839,0,0,0.06172839506172839,84.99999999999999,0)" xlink:href="#ad"/><use transform="matrix(0.06172839506172839,0,0,0.06172839506172839,97.34567901234567,0)" xlink:href="#al"/><use transform="matrix(0.06172839506172839,0,0,0.06172839506172839,109.69135802469135,0)" xlink:href="#aa"/><use transform="matrix(0.06172839506172839,0,0,0.06172839506172839,115.86419753086419,0)" xlink:href="#ae"/></g><g id="S"><use transform="matrix(0.06172839506172839,0,0,0.06172839506172839,0,0)" xlink:href="#ay"/><use transform="matrix(0.06172839506172839,0,0,0.06172839506172839,12.345679012345679,0)" xlink:href="#aB"/><use transform="matrix(0.06172839506172839,0,0,0.06172839506172839,24.691358024691358,0)" xlink:href="#as"/><use transform="matrix(0.06172839506172839,0,0,0.06172839506172839,35.80246913580247,0)" xlink:href="#aq"/><use transform="matrix(0.06172839506172839,0,0,0.06172839506172839,48.148148148148145,0)" xlink:href="#aa"/><use transform="matrix(0.06172839506172839,0,0,0.06172839506172839,54.32098765432099,0)" xlink:href="#ab"/><use transform="matrix(0.06172839506172839,0,0,0.06172839506172839,59.19753086419753,0)" xlink:href="#aB"/><use transform="matrix(0.06172839506172839,0,0,0.06172839506172839,71.54320987654322,0)" xlink:href="#al"/><use transform="matrix(0.06172839506172839,0,0,0.06172839506172839,83.8888888888889,0)" xlink:href="#ae"/></g><g id="T"><use transform="matrix(0.06172839506172839,0,0,0.06172839506172839,0,0)" xlink:href="#aS"/><use transform="matrix(0.06172839506172839,0,0,0.06172839506172839,14.814814814814813,0)" xlink:href="#aF"/><use transform="matrix(0.06172839506172839,0,0,0.06172839506172839,27.160493827160494,0)" xlink:href="#aF"/><use transform="matrix(0.06172839506172839,0,0,0.06172839506172839,39.50617283950617,0)" xlink:href="#ar"/><use transform="matrix(0.06172839506172839,0,0,0.06172839506172839,46.85185185185185,0)" xlink:href="#ad"/><use transform="matrix(0.06172839506172839,0,0,0.06172839506172839,59.197530864197525,0)" xlink:href="#ae"/><use transform="matrix(0.06172839506172839,0,0,0.06172839506172839,70.30864197530863,0)" xlink:href="#ae"/></g><g id="U"><use transform="matrix(0.06172839506172839,0,0,0.06172839506172839,0,0)" xlink:href="#aI"/><use transform="matrix(0.06172839506172839,0,0,0.06172839506172839,15.987654320987653,0)" xlink:href="#ab"/><use transform="matrix(0.06172839506172839,0,0,0.06172839506172839,20.864197530864196,0)" xlink:href="#aa"/><use transform="matrix(0.06172839506172839,0,0,0.06172839506172839,27.037037037037035,0)" xlink:href="#an"/></g><g id="V"><use transform="matrix(0.06172839506172839,0,0,0.06172839506172839,0,0)" xlink:href="#aw"/><use transform="matrix(0.06172839506172839,0,0,0.06172839506172839,14.814814814814813,0)" xlink:href="#aa"/><use transform="matrix(0.06172839506172839,0,0,0.06172839506172839,20.98765432098765,0)" xlink:href="#aq"/><use transform="matrix(0.06172839506172839,0,0,0.06172839506172839,33.33333333333333,0)" xlink:href="#aa"/><use transform="matrix(0.06172839506172839,0,0,0.06172839506172839,39.50617283950617,0)" xlink:href="#ad"/></g><g id="W"><use transform="matrix(0.06172839506172839,0,0,0.06172839506172839,0,0)" xlink:href="#aJ"/><use transform="matrix(0.06172839506172839,0,0,0.06172839506172839,13.518518518518517,0)" xlink:href="#ab"/><use transform="matrix(0.06172839506172839,0,0,0.06172839506172839,18.39506172839506,0)" xlink:href="#ao"/><use transform="matrix(0.06172839506172839,0,0,0.06172839506172839,30.74074074074074,0)" xlink:href="#aI"/><use transform="matrix(0.06172839506172839,0,0,0.06172839506172839,46.72839506172839,0)" xlink:href="#aB"/><use transform="matrix(0.06172839506172839,0,0,0.06172839506172839,59.07407407407407,0)" xlink:href="#aF"/><use transform="matrix(0.06172839506172839,0,0,0.06172839506172839,71.41975308641975,0)" xlink:href="#ad"/></g><path fill="#3a414a" d="M27 0v-27h64v-190l-56 39v-29l58-41h29v221h61V0H27" id="aT"/><g id="X"><use transform="matrix(0.06172839506172839,0,0,0.06172839506172839,0,0)" xlink:href="#ap"/><use transform="matrix(0.06172839506172839,0,0,0.06172839506172839,13.148148148148147,0)" xlink:href="#aq"/><use transform="matrix(0.06172839506172839,0,0,0.06172839506172839,25.493827160493826,0)" xlink:href="#ar"/><use transform="matrix(0.06172839506172839,0,0,0.06172839506172839,32.839506172839506,0)" xlink:href="#as"/><use transform="matrix(0.06172839506172839,0,0,0.06172839506172839,43.95061728395062,0)" xlink:href="#at"/><use transform="matrix(0.06172839506172839,0,0,0.06172839506172839,56.2962962962963,0)" xlink:href="#aq"/><use transform="matrix(0.06172839506172839,0,0,0.06172839506172839,68.64197530864197,0)" xlink:href="#ar"/><use transform="matrix(0.06172839506172839,0,0,0.06172839506172839,75.98765432098766,0)" xlink:href="#ah"/><use transform="matrix(0.06172839506172839,0,0,0.06172839506172839,83.33333333333334,0)" xlink:href="#aT"/><use transform="matrix(0.06172839506172839,0,0,0.06172839506172839,95.67901234567903,0)" xlink:href="#aO"/><use transform="matrix(0.06172839506172839,0,0,0.06172839506172839,108.02469135802471,0)" xlink:href="#ak"/></g><g id="Y"><use transform="matrix(0.06172839506172839,0,0,0.06172839506172839,0,0)" xlink:href="#aJ"/><use transform="matrix(0.06172839506172839,0,0,0.06172839506172839,13.518518518518517,0)" xlink:href="#aB"/><use transform="matrix(0.06172839506172839,0,0,0.06172839506172839,25.864197530864196,0)" xlink:href="#al"/><use transform="matrix(0.06172839506172839,0,0,0.06172839506172839,38.20987654320987,0)" xlink:href="#ad"/><use transform="matrix(0.06172839506172839,0,0,0.06172839506172839,50.55555555555555,0)" xlink:href="#af"/><use transform="matrix(0.06172839506172839,0,0,0.06172839506172839,56.72839506172839,0)" xlink:href="#ag"/></g></defs></g></svg>